<?xml version="1.0" encoding="UTF-8"?>
<svg id="uuid-8f9753cc-e15f-43ba-be3f-0d861856133b" data-name="Capa 2" xmlns="http://www.w3.org/2000/svg" viewBox="0 0 113.71 20.55">
  <g id="uuid-8b4903c4-8e85-4df2-b082-f8e86e340dd2" data-name="Capa 1">
    <g id="uuid-e6cf9b16-7311-4af4-bbbc-c1d543d4e38d" data-name="Grupo 52">
      <g id="uuid-d9e75e79-8c29-4565-9ce2-937b5de54c54" data-name="Grupo 51">
        <path id="uuid-db4982dd-c73f-4059-b79e-e7c56d39bfaf" data-name="Trazado 20" d="M57.57,16.48h0v.51c-.5.43-1.13.68-1.78.72-1.06.11-2.01-.66-2.12-1.72-.01-.12-.01-.25,0-.38-.16-1.23.7-2.36,1.94-2.53.13-.02.25-.02.38-.02.53.02,1.07.08,1.59.18v.77h0v2.45ZM62.26,20.47v-10.44c0-3.79-2.01-5.31-6.12-5.31-1.93-.02-3.84.4-5.59,1.23v3.53h1.41c.95-.68,2.09-1.04,3.26-1.02,1.7,0,2.33.61,2.33,1.95v1.05c-.87-.2-1.75-.3-2.64-.29-3.19,0-5.41,1.55-5.41,4.78-.22,2.3,1.45,4.34,3.75,4.56.2.02.41.02.61.01,1.51.12,2.98-.5,3.95-1.66.1.95.93,1.66,1.88,1.6h2.56Z" style="fill: #9a9b99;"/>
        <path id="uuid-c181ac6a-127b-4456-bc37-76f4456469f3" data-name="Trazado 21" d="M8.95,6.91c0,2.16-.71,3.6-2.77,3.6h-1.4V3.58h1.4c2.11,0,2.77,1.12,2.77,3.32M13.75,6.88c0-4.62-2.27-6.81-7.54-6.81H0v20.46h4.83v-6.93h1.1c5.24,0,7.82-2.16,7.82-6.72" style="fill: #9a9b99;"/>
        <path id="uuid-eed35d37-0738-42e6-bdb4-899a3b13f0d7" data-name="Trazado 22" d="M38.79,9.46v-4.68c-.26-.07-.53-.09-.8-.06-1.5.03-2.86.9-3.52,2.25v-1.03c.02-.66-.5-1.2-1.15-1.22-.01,0-.02,0-.04,0h-3.65v15.81h4.81v-10.7c1.14-.33,2.32-.48,3.5-.43l.85.06Z" style="fill: #9a9b99;"/>
        <path id="uuid-0c574f8d-823a-4b3f-abfc-5b937737ef5c" data-name="Trazado 23" d="M92.12,20.53V1.27c.02-.64-.48-1.18-1.13-1.2-.01,0-.03,0-.04,0h-3.67v20.46h4.83Z" style="fill: #9a9b99;"/>
        <path id="uuid-aa204ebf-ab2e-4ce9-96d4-5d7d4456d2d7" data-name="Trazado 24" d="M93.5,4.14h4.73V1.27c.02-.64-.49-1.18-1.13-1.2-.01,0-.02,0-.04,0h-3.56" style="fill: #9a9b99;"/>
        <path id="uuid-d0e31c40-5416-4331-892a-f7674fb40bf4" data-name="Trazado 25" d="M98.22,20.53V6.94c.02-.64-.49-1.18-1.13-1.2-.01,0-.02,0-.04,0h-3.56v14.79h4.73Z" style="fill: #9a9b99;"/>
        <path id="uuid-39ee368d-8360-4241-a91f-d1cb9db8020b" data-name="Trazado 26" d="M21.27,17.09c-1.49,0-2.5-1.31-2.5-4.35s1.01-4.47,2.5-4.47,2.48,1.4,2.48,4.47-1.01,4.35-2.48,4.35M21.27,20.53c3.99,0,7.08-2.95,7.08-7.86s-3.08-8-7.08-8-7.1,3.07-7.1,8,3.08,7.86,7.1,7.86" style="fill: #9a9b99;"/>
        <path id="uuid-8a23a8ca-58d8-4605-8958-7b2bb6729bcc" data-name="Trazado 27" d="M78.94,17.09c-1.49,0-2.5-1.31-2.5-4.35s1.01-4.47,2.5-4.47,2.48,1.4,2.48,4.47-1.01,4.35-2.48,4.35M78.94,20.53c3.99,0,7.08-2.95,7.08-7.86s-3.08-8-7.08-8-7.1,3.07-7.1,8,3.08,7.86,7.1,7.86" style="fill: #9a9b99;"/>
        <path id="uuid-ad1d7610-2fe7-457a-9a5a-8837289b2522" data-name="Trazado 28" d="M106.64,17.09c-1.49,0-2.5-1.31-2.5-4.35s1.01-4.47,2.5-4.47,2.48,1.4,2.48,4.47-1.01,4.35-2.48,4.35M106.64,20.53c3.99,0,7.08-2.95,7.08-7.86s-3.08-8-7.08-8-7.1,3.07-7.1,8,3.08,7.86,7.1,7.86" style="fill: #9a9b99;"/>
        <path id="uuid-ca1c2d42-462f-4cda-acbc-de0fe3e5a241" data-name="Trazado 29" d="M40,8.26h1.33v7.8c0,3.36,1.78,4.47,4.56,4.47.9,0,1.79-.13,2.65-.41v-3.04h-.9c-1.21,0-1.67-.44-1.67-1.81v-7.01h2.38v-3.39h-2.38V.96h-4.63v3.91h-1.33v3.39Z" style="fill: #9a9b99;"/>
        <path id="uuid-85d60471-ff36-4d83-bf82-d6806b30d83a" data-name="Trazado 30" d="M63.29,8.79h1.34v11.74h4.69v-11.74h2.2v-3.32h-2.2v-.71c0-1.05.55-1.29,1.59-1.29h.91V0h-2.61c-2.97,0-4.58,1.47-4.58,4.56v.91h-1.34v3.32Z" style="fill: #9a9b99;"/>
      </g>
    </g>
  </g>
</svg>