<?xml version="1.0" encoding="UTF-8"?>
<svg id="uuid-a2d80519-0262-4edf-ba9e-15cd23f47f3b" data-name="Capa 2" xmlns="http://www.w3.org/2000/svg" viewBox="0 0 78.05 19.58">
  <g id="uuid-ff7b0171-bbe1-4a9d-bf89-442aa4fde256" data-name="Capa 1">
    <path id="uuid-735db889-83b9-4204-8c01-2d0629e48d2c" data-name="path2" d="M44.24,6.38c0-2.29.04-4.41.16-6.38l-6.03,1.14v.55l.59.08c.43.04.71.2.87.43.16.28.28.67.35,1.26.08,1.14.16,3.74.12,7.84,0,4.06-.04,6.62-.12,7.6,2.17.47,3.86.67,5.12.67,2.36,0,4.22-.67,5.56-2.05,1.34-1.34,2.05-3.23,2.05-5.56,0-1.85-.51-3.39-1.54-4.61-1.02-1.22-2.32-1.81-3.86-1.81-1.02,0-2.09.28-3.27.83h0ZM44.36,18.52c-.08-1.26-.16-5.04-.16-11.23.35-.12.83-.2,1.42-.2.95,0,1.69.47,2.25,1.46s.83,2.17.83,3.66c0,1.85-.32,3.35-.95,4.61-.63,1.22-1.42,1.85-2.4,1.85-.32-.08-.63-.12-.98-.16h0ZM15.76.39H0v.79l.83.08c.63.12,1.06.35,1.34.71.28.39.43,1.02.47,1.89.32,4.26.32,8.23,0,11.9-.08.87-.24,1.5-.47,1.89-.28.39-.71.63-1.34.71l-.83.12v.79h10.16v-.79l-1.06-.08c-.63-.08-1.06-.35-1.34-.71-.28-.39-.43-1.02-.47-1.89-.12-1.58-.2-3.39-.2-5.4l2.13.04c1.14.04,1.93.91,2.32,2.64h.79v-6.42h-.79c-.39,1.69-1.14,2.56-2.32,2.6l-2.13.04c0-3.55.08-6.07.2-7.6h3.11c2.21,0,3.7,1.42,4.57,4.26l.95-.28-.16-5.28ZM13.91,12.53c0,2.05.59,3.74,1.73,5.08,1.14,1.34,2.84,1.97,4.96,1.97s3.86-.67,5.12-2.05c1.26-1.34,1.85-3.03,1.85-5.08s-.59-3.74-1.73-5.08c-1.14-1.34-2.84-1.97-4.96-1.97s-3.86.67-5.12,2.05c-1.26,1.34-1.85,3.03-1.85,5.08h0ZM22.69,8.04c.47,1.14.67,2.64.67,4.45,0,4.18-.87,6.22-2.56,6.22-.87,0-1.54-.59-2.01-1.77-.47-1.18-.67-2.68-.67-4.45,0-4.14.87-6.19,2.56-6.19.87-.04,1.54.55,2.01,1.73h0ZM55.99,17.61c1.3,1.3,2.95,1.97,4.92,1.97,1.22,0,2.29-.24,3.23-.75.95-.47,1.69-1.06,2.21-1.77l-.39-.47c-.87.67-1.85.98-2.99.98-1.58,0-2.8-.51-3.62-1.58-.87-1.06-1.26-2.4-1.18-4.14h8.43c0-1.89-.47-3.43-1.46-4.65-.98-1.18-2.36-1.77-4.14-1.77-2.21,0-3.9.71-5.12,2.09-1.22,1.38-1.81,3.07-1.81,5.08s.63,3.7,1.93,5h0ZM58.9,7.72c.43-.95.98-1.42,1.73-1.42,1.18,0,1.77,1.5,1.77,4.53l-4.18.08c.04-1.18.24-2.25.67-3.19ZM77.18,6.15c-1.06-.47-2.4-.75-4.02-.75s-2.95.43-3.94,1.26-1.5,1.85-1.5,3.07c0,1.06.32,1.89.91,2.48.59.59,1.54,1.1,2.76,1.54,1.1.39,1.89.79,2.29,1.14.39.39.63.83.63,1.42,0,.55-.2,1.06-.63,1.46-.39.43-.95.63-1.65.63-1.73,0-3.03-1.26-3.94-3.78l-.67.2.16,3.94c1.42.55,2.99.83,4.73.83s3.19-.39,4.22-1.22c1.02-.79,1.54-1.93,1.54-3.35,0-.95-.24-1.73-.75-2.32s-1.34-1.1-2.52-1.58c-1.3-.47-2.21-.91-2.68-1.3s-.71-.87-.71-1.46.16-1.06.51-1.46.79-.55,1.34-.55c1.58,0,2.72,1.14,3.43,3.39l.67-.2-.16-3.39ZM39.28,5.79c-.55-.28-1.14-.39-1.81-.39s-1.34.28-2.09.83c-.75.55-1.3,1.3-1.73,2.32l.04-3.15-5.99,1.18v.55l.59.04c.75.08,1.18.67,1.26,1.73.24,2.44.24,5.04,0,7.8-.08,1.06-.51,1.62-1.26,1.73l-.59.08v.75h8.35v-.75l-1.06-.08c-.75-.08-1.18-.67-1.26-1.73-.24-2.29-.28-4.73-.08-7.25.24-.39.75-.63,1.54-.71.79-.08,1.69.16,2.64.71l1.46-3.66Z" style="fill: #9a9b99;"/>
  </g>
</svg>