<?xml version="1.0" encoding="UTF-8"?>
<svg id="uuid-14e5474c-49d5-4d72-b0c2-9ddfcef384d7" data-name="Capa 2" xmlns="http://www.w3.org/2000/svg" viewBox="0 0 93.21 21.08">
  <g id="uuid-8967321e-a366-4bf7-a2a5-fff7abc717c6" data-name="Capa 1">
    <g>
      <polygon points="9 2.37 3.66 2.37 3.66 5.44 7.36 5.44 7.36 7.36 3.66 7.36 3.66 15.43 9 15.43 9 17.35 0 17.35 0 0 9 0 9 2.37 9 2.37" style="fill: #9a9b99;"/>
      <polygon points="19.59 15.66 19.59 17.35 10.58 17.35 10.58 0 14.37 0 14.37 15.66 19.59 15.66 19.59 15.66" style="fill: #9a9b99;"/>
      <polygon points="34.97 2.54 31.69 2.54 31.69 17.35 27.93 17.35 27.93 2.54 24.03 2.54 24.03 0 34.97 0 34.97 2.54 34.97 2.54" style="fill: #9a9b99;"/>
      <polygon points="39.76 17.35 36.66 17.35 36.66 0 39.76 0 39.76 17.35 39.76 17.35" style="fill: #9a9b99;"/>
      <polygon points="65.37 17.35 61.69 17.35 61.69 9.37 58.31 17.35 55.05 9.37 55.05 17.35 52.45 17.35 52.45 0 55.05 0 58.91 8.67 61.69 0 65.37 0 65.37 17.35 65.37 17.35" style="fill: #9a9b99;"/>
      <path d="M70.96,8.4V2.51c2.1,0,4.4-.2,4.4,3.16s-2.93,2.77-4.4,2.73h0ZM75.19,0h-8.01v17.35h3.77v-6.05h4.43s3.46-.37,3.46-5.63-3.65-5.67-3.65-5.67h0Z" style="fill: #9a9b99;"/>
      <path d="M86.6,16.13c-1.31,0-2.37-3.34-2.37-7.46s1.06-7.46,2.37-7.46,2.37,3.34,2.37,7.46-1.06,7.46-2.37,7.46h0ZM86.6,0c-3.65,0-6.61,3.88-6.61,8.67s2.96,8.67,6.61,8.67,6.61-3.88,6.61-8.67-2.96-8.67-6.61-8.67h0Z" style="fill: #9a9b99;"/>
      <polygon points="50.58 2.37 45.23 2.37 45.23 5.44 48.94 5.44 48.94 7.36 45.23 7.36 45.23 15.43 50.58 15.43 50.58 17.35 41.57 17.35 41.57 0 50.58 0 50.58 2.37 50.58 2.37" style="fill: #9a9b99;"/>
      <rect x="0" y="19.1" width="93.21" height=".51" style="fill: #9a9b99;"/>
      <rect x="27.83" y="19.56" width="37.54" height="1.52" style="fill: #9a9b99;"/>
    </g>
  </g>
</svg>