<?xml version="1.0" encoding="UTF-8"?>
<svg id="uuid-56511abf-1360-4cc1-ad2a-ae180d11e2fd" data-name="Capa 2" xmlns="http://www.w3.org/2000/svg" viewBox="0 0 125.31 19.25">
  <g id="uuid-ae870b4e-f7f5-4ad1-851e-1409247552dc" data-name="Capa 1">
    <g id="uuid-3773438b-aa55-4204-a814-c7be1e3dedcc" data-name="Capa 2-2">
      <g id="uuid-b393a5e6-f9a4-4b47-b5a5-93520af670f0" data-name="Capa 1-2">
        <path id="uuid-c121b6ad-5942-4800-9d83-1746b7b541dc" data-name="Trazado 12708" d="M9.33,18.82s-.05.15-.17.15H1.42c-.22,0-.22-.22,0-.22.64-.05.94.27.91-.8V5.9c0-1.08-.27-.76-.91-.8-.22,0-.22-.22,0-.22h7.15c.1,0,.17.05.17.15v4.27s-.05.15-.15.15c-.17,0-.1-.33-.13-.45.05-1.63-.69-3.9-2.61-3.9h-1.26c-.13,0-.17.03-.17.1v6.17c0,.2.76.08.86.1,1.11-.03,1.63-1.33,1.56-2.3-.03-.2.3-.22.27,0v4.79c0,.22-.24.2-.27.05v-.25c0-.92-.51-2.1-1.56-2.12-.13.03-.86-.1-.86.13v6.8c0,.08.05.1.17.1,1.56.08,3.08,0,3.87-1.6.47-.82.64-1.77.62-2.72,0-.1.05-.15.15-.15s.15.05.15.15v4.43l-.05.05v-.03s0,0,0,0Z" style="fill: #9a9b99;"/>
        <path id="uuid-1dcd475c-a855-438f-887b-23c0a2805eb0" data-name="Trazado 12709" d="M18.87,18.82s-.08.15-.15.15h-7.77c-.1,0-.17-.05-.17-.13s.05-.1.17-.1h.72c.13,0,.2-.27.2-.8V5.9c0-.52-.08-.8-.2-.8h-.72c-.22,0-.22-.22,0-.22h4.22c.1,0,.17.05.17.13s-.05.1-.17.1h-1.01c-.15,0-.2.27-.2.8v12.73s.05.1.17.1h1.16c2.44.13,3.47-2.62,3.3-4.73,0-.2.3-.22.27,0v4.82h0s0,0,0,0Z" style="fill: #9a9b99;"/>
        <path id="uuid-ddfb4bf7-cf5d-467b-8d7a-40fa70de194b" data-name="Trazado 12710" d="M33.86,18.82s-.05.15-.17.15h-7.77c-.22,0-.22-.22,0-.22.67-.05.94.3.91-.8V5.9c0-1.1-.24-.76-.91-.8-.22,0-.22-.22,0-.22h7.15c.1,0,.17.05.17.15v4.27s-.05.15-.15.15c-.17,0-.1-.33-.13-.45.05-1.63-.69-3.9-2.61-3.9h-1.23c-.13,0-.17.03-.17.1v6.17c-.03.17.76.08.86.1,1.11-.03,1.63-1.33,1.56-2.3-.03-.2.3-.22.27,0v4.79c0,.22-.24.2-.27.05v-.25c0-.92-.51-2.1-1.56-2.12-.13.03-.89-.1-.86.13v6.8c0,.08.05.1.17.1,1.58.08,3.03,0,3.87-1.6.47-.82.64-1.77.62-2.72,0-.2.3-.22.3,0v4.43l-.05.05v-.03s0,0,0,0Z" style="fill: #9a9b99;"/>
        <path id="uuid-391592ca-0e2a-48af-9827-4e157ca9062f" data-name="Trazado 12711" d="M42.73,15.22c.1,2.12-1.72,4.1-3.87,3.98-1.01.03-1.93-.43-2.86-.7-.32-.05-.08.47-.3.5-.08,0-.1-.08-.1-.2v-4.93c0-.22.22-.22.2,0v.15c-.08,1.98.81,5,3.11,4.93.62.03,1.23-.17,1.72-.6,1.29-1.28.45-3.5-.84-4.45-.89-.73-1.8-1.45-2.71-2.18-3.25-2.75-.64-9.03,3.65-6.6,1.04.52.42-.25.79-.35.1,0,.15.08.15.2v4.35c0,.22-.3.25-.27,0v-.15c0-1.72-.59-4.25-2.69-4.32-2.64.1-1.93,3.84-.27,4.9,1.8,1.47,4.34,2.75,4.27,5.45l.03.03v.02s-.01,0-.01,0Z" style="fill: #9a9b99;"/>
        <path id="uuid-c2800e23-fbfd-4dea-9042-bf5307d3b2da" data-name="Trazado 12712" d="M52.62,8.8c.15,2.05-1.56,4.05-3.63,3.95h-1.7c-.13,0-.17.05-.17.15v5.05c0,.52.08.8.2.8h1.06c.1,0,.17.03.17.1s-.05.13-.17.13h-4.27c-.22,0-.22-.22,0-.22h.72c.47.33.1-12.65.2-12.85,0-.52-.08-.8-.2-.8h-.72c-.22,0-.22-.22,0-.22h4.81c2.15-.15,3.9,1.8,3.73,3.92h-.03v-.02h0ZM50.31,8.8c0-1.25,0-3.7-1.7-3.7h-1.31c-.13,0-.17.05-.17.13v7.18s.05.13.17.13h1.33c1.72.05,1.7-2.45,1.7-3.72h-.03s0,0,0,0Z" style="fill: #9a9b99;"/>
        <path id="uuid-4b3ea1c8-2371-497b-8f0e-79476b13d976" data-name="Trazado 12713" d="M62.08,18.82s-.05.15-.17.15h-7.77c-.22,0-.22-.22,0-.22.67-.05.94.3.91-.8V5.9c0-1.1-.24-.76-.91-.8-.22,0-.22-.22,0-.22h7.15c.1,0,.17.05.17.15v4.27s-.05.15-.15.15c-.17,0-.1-.33-.13-.45.05-1.63-.69-3.9-2.61-3.9h-1.26c-.13,0-.17.03-.17.1v6.17c-.03.17.76.08.86.1,1.11-.03,1.63-1.33,1.56-2.3-.03-.2.3-.22.27,0v4.79c0,.22-.24.2-.27.05v-.25c0-.92-.51-2.1-1.56-2.12-.13.03-.89-.1-.86.13v6.8c0,.08.05.1.17.1,1.58.08,3.03,0,3.87-1.6.47-.82.64-1.77.62-2.72,0-.2.3-.22.3,0v4.43l-.03.05v-.03s0,0,0,0Z" style="fill: #9a9b99;"/>
        <path id="uuid-c28b6dd5-0593-45ab-81a2-53e4493955d5" data-name="Trazado 12714" d="M71.91,18.82c0,.25-.3.27-.27,0,.08-.5-.37-.27-.64-.15-.81.35-1.66.52-2.54.55-6.47.08-6.61-14.6-.08-14.58.74-.22,2.79,1.08,2.71.52,0-.1,0-.35.1-.35.32-.17.08,4.73.15,4.79,0,.25-.27.25-.24,0,.05-1.82-.54-4.63-2.71-4.79-2.17-.05-2.1,2.62-2.2,4.2-.1,1.95-.1,3.87,0,5.82-.1,6.8,5.89,4.52,5.43-1.03,0-.22.3-.25.27,0v4.97l.03.03v.02h0Z" style="fill: #9a9b99;"/>
        <path id="uuid-5dd54e7d-cf7f-4b1d-ae2f-3cd114753fea" data-name="Trazado 12715" d="M82.71,9.57c0,.22-.27.22-.25,0,.08-1.75-.4-4.43-2.59-4.47-.13.03-.95-.1-.95.1v12.73c-.03,1.08.3.76.95.8.22,0,.22.22,0,.22h-4.02c-.22,0-.22-.22,0-.22h.75c.15,0,.2-.27.2-.8V5.2c0-.2-.82-.05-.95-.1-2.2.03-2.67,2.72-2.59,4.47,0,.22-.3.2-.27,0v-4.57c0-.1.05-.15.17-.15h9.37s.17.05.17.15v4.57h.03s0,0,0,0Z" style="fill: #9a9b99;"/>
        <path id="uuid-428af7bd-1390-40a7-bc6b-e1cf6058c059" data-name="Trazado 12716" d="M92.12,18.85s-.05.13-.17.13h-3.87c-.22,0-.22-.22,0-.22.24-.05.96.15.89-.3.03-.3-1.06-4.35-1.13-4.73,0-.08-.08-.13-.17-.13h-2.96s-.13.05-.13.13c-.24,1.1-.59,2.4-.62,3.53,0,1.22.49,1.6,1.38,1.5.22,0,.22.22,0,.22h-3.16c-.22,0-.22-.22,0-.22,1.11,0,1.53-2.88,1.8-3.8l2.39-10.07c0-.08.05-.13.17-.13h.91s.15.05.17.13l3.46,12.95c.37,1.42.76.65,1.01,1.03h.03s0-.01,0-.01ZM87.71,13.25l-1.56-6.25h-.05l-1.4,6.31s0,.13.15.13h2.71s.15-.05.15-.15v-.03h0,0Z" style="fill: #9a9b99;"/>
        <path id="uuid-7567caa3-3e1c-4068-a600-a54ccf29e524" data-name="Trazado 12717" d="M102.59,11.83c0,3.55-1.13,7.08-4.81,7.15h-4.68c-.1,0-.17-.05-.17-.13s.05-.1.17-.1c.64-.05.94.27.91-.8V5.9c0-1.08-.27-.76-.91-.8-.22,0-.22-.22,0-.22h4.68c3.47-.08,4.91,3.98,4.81,6.95ZM100,14.75c.1-1.93.1-3.83,0-5.75-.08-1.5-.24-3.92-2.2-3.87h-1.48c-.13,0-.17.03-.17.1v13.42s.05.1.17.1h1.53c2.04.08,2.1-2.48,2.17-4h-.03s0-.01,0-.01Z" style="fill: #9a9b99;"/>
        <path id="uuid-2bb70347-d170-47b2-a0e4-c9302d46e8f9" data-name="Trazado 12718" d="M113.43,11.84c.3,3.8-2.2,9.03-6.64,6.88-4.98-2.83-3.57-16.75,3.73-13.62,2.25,1.3,2.91,4.3,2.91,6.75ZM110.85,14.76c.1-1.95.1-3.92,0-5.9-.05-1.5-.22-4.13-2.12-4.08-2.17-.05-2.15,2.62-2.22,4.2-.1,1.95-.1,3.92,0,5.88.05,1.5.24,4.15,2.15,4.1,2.17.05,2.15-2.6,2.2-4.2h0Z" style="fill: #9a9b99;"/>
        <path id="uuid-4ff2109a-1f25-4b8e-8bce-4476268b4093" data-name="Trazado 12719" d="M124.64,17.98s.1.1.08.22c-.64,2.12-3.87.68-3.57-1.25-.08-1.63.54-5.4-1.77-5.25h-1.26c-.15,0-.2.05-.2.13v6.15c-.03,1.08.27.76.91.8.22,0,.22.22,0,.22h-3.92c-.22,0-.22-.22,0-.22h.72c.15,0,.2-.27.2-.8-.13-.27.27-13.09-.2-12.85h-.72c-.22,0-.22-.22,0-.22,1.7.2,5.75-.55,7.1.76,2.2,1.77.96,5.72-1.85,5.93,3.28.5,3.11,3.7,3.03,6.28-.1,1.25.96,1.35,1.26.3.05-.13.13-.2.17-.17h.03v-.02h0ZM121.06,8.32c0-2.15-.51-3.23-1.58-3.23-.13.05-1.63-.13-1.58.13v6.12c-.08.25,1.5.08,1.6.13,1.53,0,1.56-2.02,1.56-3.15h0Z" style="fill: #9a9b99;"/>
        <path id="uuid-4054a765-adf0-4ac9-acb6-0150dbe158c0" data-name="Rectángulo 6738" d="M0,0h125.31v2.18H0V0Z" style="fill: #9a9b99;"/>
      </g>
    </g>
  </g>
</svg>