<?xml version="1.0" encoding="UTF-8"?>
<svg id="uuid-d53fed70-601b-439a-ba8b-277e078295fd" data-name="Capa 2" xmlns="http://www.w3.org/2000/svg" viewBox="0 0 98.35 19.72">
  <g id="uuid-7730807c-cfb8-41c0-9bfa-1bc3ba61734c" data-name="Capa 1">
    <g id="uuid-76337979-1337-4189-9872-46b705cd109d" data-name="g16-5">
      <path id="uuid-b6025b7b-776d-4724-bca1-ec4f1d3a9a9e" data-name="path4-2" d="M6.73,0C3.34,0,.47,1.98.47,5.51s2.91,4.95,5.39,6.11c2.37,1.2,4.13,1.8,4.13,3.57,0,1.57-1.42,2.37-3.1,2.37-2.04,0-4.54-1.2-5.7-3.72H0v5.55h1.07l.6-2.37c1.22,1.45,3.24,2.68,5.88,2.68,3.34,0,6.73-1.98,6.73-5.8,0-3.3-2.56-4.91-5.18-6.13-2.5-1.22-4.62-1.9-4.62-3.72,0-1.38,1.2-2,2.68-2,1.86,0,4.05.97,4.83,3.2h1.2V0h-1.07l-.47,2.04c-.87-.93-2.42-2.04-4.91-2.04h0ZM60.61,4.77c-1.98,0-4.17.83-5.84,2.37l.64.85c.89-.64,2.04-1.01,3.16-1.01,1.71,0,3.28.93,3.28,3.1-4.5.83-7.89,1.53-7.89,5.18,0,3.01,2.17,4.4,4.25,4.4,1.49,0,2.97-.6,3.61-1.94h.14c.45,1.34,1.57,1.86,3.01,1.86.85,0,1.75-.19,2.54-.52h.04v-.97c-1.67.23-1.57-.97-1.57-1.71v-6.13c-.02-3.65-2.42-5.47-5.39-5.47h0ZM91.39,4.77c-1.98,0-4.17.83-5.84,2.37l.64.85c.89-.64,2.04-1.01,3.16-1.01,1.71,0,3.28.93,3.28,3.1-4.5.83-7.89,1.53-7.89,5.18,0,3.01,2.17,4.4,4.25,4.4,1.49,0,2.97-.6,3.61-1.94h.14c.45,1.34,1.57,1.86,3.01,1.86.85,0,1.75-.19,2.54-.52h.04v-.97c-1.67.23-1.57-.97-1.57-1.71v-6.13c-.02-3.65-2.42-5.47-5.39-5.47h0ZM21.84,4.83c-3.84,0-6.4,3.06-6.4,7.18s2.83,7.64,6.92,7.64c2.93,0,5.51-1.86,6.5-4.62l-.56-.78c-1.2,1.2-2.6,1.98-4.17,1.98-1.75,0-3.39-1.01-4.4-3.12l.08-.14,7.74-3.49c-.56-2.81-2.75-4.65-5.72-4.65h0ZM38.85,4.91c-2.56,0-3.86,1.71-4.4,2.42h-.12v-2.17h-.6l-4.83,1.01v1.01l1.42.41v9.5c0,.6-.19.89-.78,1.03l-.74.19v1.01h7.29v-1.01l-.78-.19c-.56-.14-.78-.45-.78-1.03v-8.44c.97-.6,1.8-.85,2.42-.85,1.38,0,2.04,1.07,2.04,2.75v6.54c0,.6-.23.89-.78,1.03l-.78.19v1.01h7.18v-1.01l-.74-.19c-.6-.14-.78-.45-.78-1.03v-7.6c0-.29,0-.6-.08-.89.97-.6,1.8-.85,2.42-.85,1.38,0,2.13,1.11,2.13,2.79v6.54c0,.6-.23.89-.78,1.03l-.78.19v1.01h7.37v-1.01l-.83-.19c-.6-.14-.78-.45-.78-1.03v-7.6c0-2.27-1.45-4.58-4.4-4.58-2.56,0-4.09,1.71-4.62,2.42h-.1c-.54-1.38-1.78-2.42-3.74-2.42h0ZM78.08,4.91c-2.54,0-3.76,1.71-4.27,2.42h-.1v-2.17h-.6l-4.83,1.01v1.01l1.4.41v9.5c0,.6-.19.89-.78,1.03l-.74.19v1.01h7.37v-1.01l-.78-.19c-.56-.14-.78-.45-.78-1.03v-8.48c.93-.6,1.75-.85,2.37-.85,1.34,0,1.98,1.11,1.98,2.79v6.54c0,.6-.23.89-.78,1.03l-.78.19v1.01h7.37v-1.01l-.74-.19c-.6-.14-.78-.45-.78-1.03h-.1v-7.6c-.02-2.27-1.47-4.58-4.4-4.58h0ZM20.87,6.44c1.11,0,1.94.83,2.46,3.43l-4.09,2c-.78-2.68-.31-5.43,1.63-5.43ZM61.77,11.35v4.58c0,.74-.66,1.22-1.49,1.2-1.26,0-2.13-.89-2.13-2.75,0-2.02,1.11-2.44,3.61-3.03ZM92.55,11.35v4.58c0,.74-.64,1.22-1.49,1.2-1.26,0-2.13-.89-2.13-2.75,0-2.02,1.11-2.44,3.61-3.03h0Z" style="fill: #9a9b99;"/>
    </g>
  </g>
</svg>