<?xml version="1.0" encoding="UTF-8"?>
<svg id="uuid-d20f8b37-0f9c-4cf9-b5c2-dc8ac76ebb60" data-name="Capa 2" xmlns="http://www.w3.org/2000/svg" viewBox="0 0 19.85 20.37">
  <g id="uuid-2b6d715f-d138-4c07-a4a8-356156596ba3" data-name="Capa 1">
    <g>
      <path d="M.17,19.69c0,.29.15.53.45.53.2,0,.36-.11.41-.31h.17c-.08.25-.24.45-.58.45-.43,0-.62-.31-.62-.7s.23-.71.62-.71.59.26.59.74H.17M1.04,19.56c0-.26-.15-.48-.43-.48s-.42.22-.45.48h.88Z" style="fill: #9a9b99;"/>
      <rect x="1.55" y="18.45" width=".16" height="1.87" style="fill: #9a9b99;"/>
      <path d="M3.31,19.07c-.03-.11-.09-.32-.41-.32-.19,0-.46.12-.46.65,0,.33.13.64.46.64.22,0,.37-.12.41-.35h.39c-.08.4-.34.69-.81.69-.5,0-.85-.33-.85-.98s.38-.98.86-.98c.56,0,.78.38.8.66h-.39" style="fill: #9a9b99;"/>
      <path d="M4.8,18.41c.25,0,.9.11.9.98s-.65.98-.9.98-.9-.11-.9-.98.65-.98.9-.98M4.8,20.04c.21,0,.51-.13.51-.65s-.3-.65-.51-.65-.51.13-.51.65.3.65.51.65Z" style="fill: #9a9b99;"/>
      <polyline points="6.42 19.98 7.34 19.98 7.34 20.32 6.03 20.32 6.03 18.46 6.42 18.46 6.42 19.98" style="fill: #9a9b99;"/>
      <path d="M8.36,18.41c.25,0,.89.11.89.98s-.65.98-.89.98-.9-.11-.9-.98.65-.98.9-.98M8.36,20.04c.21,0,.51-.13.51-.65s-.3-.65-.51-.65-.51.13-.51.65.3.65.51.65Z" style="fill: #9a9b99;"/>
      <polyline points="11.37 20.32 11.01 20.32 11.01 18.76 11 18.76 10.65 20.32 10.27 20.32 9.93 18.76 9.93 18.76 9.93 20.32 9.56 20.32 9.56 18.46 10.13 18.46 10.47 19.93 10.48 19.93 10.81 18.46 11.37 18.46 11.37 20.32" style="fill: #9a9b99;"/>
      <path d="M11.71,18.46h.91c.46,0,.57.29.57.48,0,.27-.15.34-.23.38.23.09.29.27.29.45,0,.15-.06.29-.16.38-.11.1-.21.17-.59.17h-.79v-1.86M12.08,19.19h.46c.15,0,.28-.06.28-.21s-.11-.2-.29-.2h-.45v.41ZM12.08,20h.48c.19,0,.3-.08.3-.27,0-.16-.14-.23-.28-.23h-.5v.5Z" style="fill: #9a9b99;"/>
      <rect x="13.54" y="18.46" width=".39" height="1.86" style="fill: #9a9b99;"/>
      <path d="M14.62,20.32h-.41l.66-1.86h.45l.66,1.86h-.42l-.12-.38h-.69l-.13.38M14.85,19.62h.47l-.23-.74h0l-.24.74Z" style="fill: #9a9b99;"/>
      <polyline points="17.38 18.46 17.74 18.46 17.74 20.32 17.35 20.32 16.59 18.99 16.58 18.99 16.58 20.32 16.22 20.32 16.22 18.46 16.63 18.46 17.37 19.76 17.38 19.76 17.38 18.46" style="fill: #9a9b99;"/>
      <path d="M18.95,18.41c.25,0,.9.11.9.98s-.65.98-.9.98-.9-.11-.9-.98.65-.98.9-.98M18.95,20.04c.21,0,.51-.13.51-.65s-.3-.65-.51-.65-.51.13-.51.65.3.65.51.65Z" style="fill: #9a9b99;"/>
      <rect x="0" y="17.99" width="19.84" height=".07" style="fill: #9a9b99;"/>
      <path d="M15.88,11.91h-1c-.04,2.44-2.3,3.97-3.89,3.97s-3.05-1.23-3.05-3.32v-7.92c0-1.99,1.33-3.32,3.11-3.32,2.45,0,3.66,3.44,3.84,3.97h.99V0c-.19,1.24-1.64,1.98-2.75,1.29-1.31-.82-2.86-1.29-4.52-1.29C3.85,0,0,3.85,0,8.6s3.85,8.6,8.6,8.6c6.62,0,7.28-4.63,7.28-5.29" style="fill: #9a9b99;"/>
      <path d="M19.85,15.21c0,1.1-.89,1.98-1.98,1.98s-1.98-.89-1.98-1.98.89-1.98,1.98-1.98,1.98.89,1.98,1.98" style="fill: #9a9b99;"/>
    </g>
  </g>
</svg>