<?xml version="1.0" encoding="UTF-8"?>
<svg id="uuid-9361b7a1-6508-4dde-b969-0c3e9704d4fc" data-name="Capa 2" xmlns="http://www.w3.org/2000/svg" viewBox="0 0 102.02 21.79">
  <g id="uuid-0ab84328-92be-46c6-8eaf-68bb31f550c2" data-name="Capa 1">
    <g>
      <g>
        <rect y="2.21" width="102.02" height=".44" style="fill: #9a9b99;"/>
        <rect y="21.35" width="102.02" height=".44" style="fill: #9a9b99;"/>
        <g>
          <rect x="41.59" y=".22" width="18.85" height="2.21" style="fill: #9a9b99;"/>
          <path d="M60.66,2.66h-19.29V0h19.29v2.66ZM41.81,2.21h18.4V.44h-18.4v1.77Z" style="fill: #9a9b99;"/>
        </g>
      </g>
      <g>
        <g>
          <path d="M8.98,6.94v4.11h1.08c.22,0,.4-.03.53-.08.13-.06.23-.13.27-.21s.09-.18.13-.27c.04-.1.08-.19.11-.27.03-.08.1-.15.2-.21.1-.06.24-.08.41-.08h.29v3.23h-.43c-.17,0-.31-.04-.4-.12s-.16-.18-.2-.3-.09-.23-.13-.35-.13-.22-.26-.3-.3-.12-.51-.12h-1.08v4.55h2.7c.32,0,.58-.04.79-.11s.37-.18.48-.3c.11-.12.19-.26.25-.41.06-.15.11-.3.14-.44.03-.15.07-.28.11-.41s.12-.22.22-.3c.1-.08.23-.11.4-.11h.39v3H5.4v-.29c0-.18.03-.32.1-.41.06-.09.14-.14.23-.16.09-.02.18-.05.26-.08.09-.03.17-.1.23-.22.06-.12.1-.29.1-.53V7.71c0-.23-.03-.41-.1-.53-.06-.12-.14-.19-.23-.22-.09-.03-.18-.05-.26-.08-.09-.02-.17-.08-.23-.16-.06-.09-.1-.22-.1-.41v-.29h7.13c.51,0,.95-.12,1.3-.36v3.04h-.48c-.15,0-.27-.04-.37-.13-.1-.09-.18-.2-.23-.33-.05-.13-.12-.28-.2-.43-.08-.16-.17-.3-.27-.43-.1-.13-.25-.24-.46-.33-.21-.09-.46-.13-.75-.13h-2.1Z" style="fill: #9a9b99;"/>
          <path d="M14.58,17.52H5.28v-.4c0-.21.04-.36.12-.47.08-.11.18-.18.29-.2.08-.02.17-.05.26-.07.06-.02.12-.08.17-.17.05-.1.08-.26.08-.47V7.71c0-.21-.03-.37-.08-.47-.05-.09-.1-.15-.16-.17-.08-.03-.17-.05-.26-.07-.12-.03-.21-.1-.29-.2-.08-.11-.12-.26-.12-.47v-.4h7.24c.49,0,.91-.11,1.24-.34l.17-.11v3.36h-.59c-.17,0-.32-.05-.44-.16-.11-.1-.2-.22-.26-.37-.05-.13-.11-.27-.19-.42-.08-.15-.17-.29-.26-.42-.08-.11-.22-.21-.41-.29-.19-.08-.43-.12-.7-.12h-1.99v3.89h.97c.21,0,.37-.03.49-.08.11-.05.18-.1.22-.16.04-.08.09-.17.12-.26.04-.1.07-.19.11-.27.04-.11.12-.2.25-.27.12-.07.27-.1.46-.1h.4v3.46h-.55c-.2,0-.36-.05-.47-.15-.11-.09-.18-.21-.23-.34-.04-.11-.09-.23-.13-.35-.04-.1-.11-.18-.22-.25-.11-.07-.26-.1-.45-.1h-.97v4.32h2.59c.3,0,.56-.04.76-.11.19-.07.34-.16.43-.27.1-.11.18-.24.23-.38.06-.14.1-.28.13-.42.03-.15.07-.29.12-.42.05-.14.14-.26.25-.35.12-.09.28-.14.47-.14h.5v3.22ZM5.51,17.3h8.85v-2.77h-.28c-.14,0-.26.03-.34.09-.08.06-.14.15-.18.25-.04.12-.08.25-.11.39-.03.15-.08.31-.14.46-.07.16-.15.3-.27.44-.12.14-.29.25-.53.33-.22.08-.5.12-.83.12h-2.81v-4.77h1.19c.24,0,.43.05.57.14.15.09.25.21.3.35.05.12.09.24.14.36.04.1.09.18.17.25.07.06.18.09.33.09h.32v-3.01h-.18c-.15,0-.27.02-.36.07-.08.04-.13.09-.15.15-.03.08-.07.18-.11.28-.04.1-.09.2-.14.29-.06.11-.17.19-.33.26-.15.06-.34.09-.58.09h-1.19v-4.33h2.21c.3,0,.57.05.79.14.23.09.4.22.51.36.1.13.19.28.28.44.08.16.15.31.2.44.04.12.11.21.19.28.08.07.18.1.3.1h.37v-2.74c-.34.18-.74.27-1.19.27h-7.02v.18c0,.16.03.28.07.34.05.07.1.1.16.12.09.02.18.05.27.08.11.04.21.13.29.27.07.14.11.33.11.58v8.02c0,.25-.04.44-.11.58-.08.14-.18.24-.29.27-.09.03-.18.06-.27.08-.06.01-.11.05-.16.12-.05.07-.07.18-.07.34v.18Z" style="fill: #9a9b99;"/>
        </g>
        <g>
          <path d="M23.64,14.42v3h-8.54v-.29c0-.18.03-.32.1-.41.06-.09.14-.14.23-.16.09-.02.18-.05.27-.08.09-.03.17-.1.23-.22.06-.12.09-.29.09-.53V7.71c0-.23-.03-.41-.09-.53-.06-.12-.14-.19-.23-.22-.09-.03-.18-.05-.27-.08-.09-.02-.17-.08-.23-.16-.06-.09-.1-.22-.1-.41v-.29h4.65v.29c0,.16-.03.28-.08.37-.05.09-.12.14-.19.16-.08.02-.16.05-.25.08-.09.03-.18.06-.25.09-.08.03-.14.11-.19.23s-.08.27-.08.47v8.79h1.2c.5,0,.92-.04,1.27-.11.35-.08.6-.18.77-.3s.3-.26.4-.41.16-.3.2-.44c.04-.15.08-.28.12-.41s.12-.22.22-.3c.1-.08.25-.11.44-.11h.32Z" style="fill: #9a9b99;"/>
          <path d="M23.75,17.52h-8.76v-.4c0-.21.04-.36.12-.47.08-.11.18-.18.29-.2.09-.02.17-.05.26-.07.06-.02.12-.08.17-.17.05-.1.08-.26.08-.47V7.71c0-.21-.03-.37-.08-.47-.05-.09-.1-.15-.17-.17-.09-.03-.17-.05-.26-.07-.12-.03-.22-.1-.3-.2-.08-.11-.12-.26-.12-.47v-.4h4.87v.4c0,.18-.03.32-.1.43-.07.11-.16.18-.26.21-.07.02-.16.05-.25.07-.09.03-.17.06-.24.09-.05.02-.1.08-.14.17-.05.1-.07.24-.07.42v8.68h1.09c.49,0,.91-.04,1.25-.11.33-.07.57-.17.73-.28.16-.12.28-.24.37-.38.09-.14.15-.27.18-.41.04-.15.08-.29.13-.42.05-.14.14-.26.26-.35.12-.09.29-.14.51-.14h.43v3.22ZM15.22,17.3h8.32v-2.77h-.21c-.16,0-.29.03-.37.09-.09.06-.15.15-.18.25-.04.12-.08.25-.12.4-.04.16-.11.32-.21.48-.1.16-.24.3-.42.44-.18.13-.45.24-.81.32-.35.08-.79.12-1.29.12h-1.31V7.71c0-.21.03-.38.09-.51.06-.14.15-.24.25-.28.08-.04.17-.07.26-.1.09-.03.18-.06.26-.08.05-.01.09-.05.13-.11.04-.07.06-.17.06-.31v-.18h-4.43v.18c0,.16.03.28.07.34.05.07.1.1.17.12.09.02.19.05.28.08.12.04.22.13.29.27.07.14.11.33.11.58v8.02c0,.25-.04.44-.11.58-.08.14-.18.24-.3.27-.09.03-.19.06-.28.08-.06.01-.12.05-.17.12-.05.07-.07.18-.07.34v.18Z" style="fill: #9a9b99;"/>
        </g>
        <g>
          <path d="M38.74,6.03h4.52v.25c0,.2-.03.35-.09.44-.06.09-.14.15-.23.17-.09.02-.18.05-.27.08-.09.03-.17.1-.23.22-.06.12-.09.3-.09.53v8.02c0,.24.03.42.09.53.06.12.14.19.23.22.09.03.18.05.27.08.09.02.17.08.23.17.06.09.09.24.09.44v.25h-4.52v-.25c0-.2.03-.35.09-.44.06-.09.14-.15.23-.17.09-.02.18-.05.27-.08.09-.03.17-.1.23-.22s.09-.3.09-.53V7.71c0-.24-.03-.42-.09-.53s-.14-.19-.23-.22-.18-.05-.27-.08c-.09-.02-.17-.08-.23-.17-.06-.09-.09-.24-.09-.44v-.25Z" style="fill: #9a9b99;"/>
          <path d="M43.38,17.52h-4.74v-.36c0-.23.04-.39.11-.5.08-.12.18-.19.3-.22.09-.02.18-.05.26-.07.06-.02.12-.08.17-.17.05-.1.08-.26.08-.48V7.71c0-.22-.03-.38-.08-.48-.05-.09-.1-.15-.17-.17-.09-.03-.17-.05-.26-.07-.12-.03-.22-.1-.3-.22-.08-.11-.11-.28-.11-.5v-.36h4.74v.36c0,.23-.04.39-.11.5-.08.12-.18.19-.3.22-.09.02-.18.04-.26.07-.06.02-.12.08-.17.17-.05.1-.08.26-.08.48v8.02c0,.22.03.38.08.48.05.09.1.15.16.17.09.03.18.05.26.07.12.03.22.1.3.22.08.11.11.28.11.5v.36ZM38.86,17.3h4.3v-.13c0-.22-.04-.33-.08-.38-.05-.07-.1-.11-.17-.12-.1-.02-.19-.05-.28-.08-.12-.04-.22-.13-.29-.27-.07-.14-.11-.33-.11-.59V7.71c0-.26.04-.45.11-.59.08-.14.17-.24.29-.27.09-.03.19-.06.28-.08.06-.01.12-.06.17-.12.03-.05.08-.16.08-.38v-.13h-4.3v.13c0,.22.04.33.08.38.05.07.1.11.17.12.1.02.19.05.28.08.12.04.22.13.29.27.07.14.11.33.11.59v8.02c0,.26-.04.45-.11.59-.08.14-.18.24-.3.27-.09.03-.19.06-.28.08-.06.01-.12.06-.16.12-.03.05-.08.16-.08.38v.13Z" style="fill: #9a9b99;"/>
        </g>
        <g>
          <path d="M54.09,6.03h4.48v.25c0,.2-.03.35-.1.44-.06.09-.14.15-.23.17-.09.02-.18.05-.26.08s-.16.1-.23.22c-.06.12-.1.3-.1.53v6.06c0,.45.03.84.1,1.17.07.33.19.64.35.92.17.28.41.5.72.64s.71.22,1.17.22c.3,0,.58-.03.83-.1.26-.07.47-.15.65-.26.18-.11.33-.23.47-.37.14-.14.25-.28.32-.43.08-.14.15-.29.2-.44s.09-.29.11-.4c.02-.11.03-.21.03-.3v-6.7c0-.24-.03-.42-.09-.53s-.14-.19-.23-.22-.18-.05-.26-.08c-.09-.02-.16-.08-.23-.17-.06-.09-.09-.24-.09-.44v-.25h2.82v.25c0,.2-.03.35-.09.44-.06.09-.14.15-.23.17-.09.02-.18.05-.26.08s-.16.1-.23.22c-.06.12-.09.3-.09.53v6.7c0,1.04-.39,1.85-1.17,2.42s-1.79.87-3.04.87c-.5,0-.96-.04-1.4-.13-.43-.09-.84-.22-1.21-.41-.37-.19-.69-.42-.96-.69-.27-.27-.48-.61-.63-1.01-.15-.4-.23-.84-.23-1.32v-6.43c0-.24-.03-.42-.09-.53s-.14-.19-.23-.22c-.09-.03-.18-.05-.26-.08-.09-.02-.17-.08-.23-.17-.06-.09-.09-.24-.09-.44v-.25Z" style="fill: #9a9b99;"/>
          <path d="M59.42,17.82c-.5,0-.98-.04-1.42-.13-.44-.09-.86-.23-1.24-.42-.38-.19-.71-.43-.99-.71-.28-.28-.49-.64-.65-1.05-.16-.41-.24-.87-.24-1.36v-6.43c0-.22-.03-.38-.08-.48-.05-.09-.1-.15-.16-.17-.08-.03-.17-.05-.25-.07-.12-.03-.22-.1-.3-.22-.08-.11-.11-.28-.11-.5v-.36h4.7v.36c0,.23-.04.39-.11.5-.08.11-.18.19-.29.22-.09.02-.17.04-.26.07-.06.02-.11.08-.16.17-.05.1-.08.26-.08.48v6.06c0,.44.03.82.1,1.15.07.32.18.62.34.89.16.26.38.46.67.6.3.14.68.21,1.12.21.29,0,.56-.03.81-.09.24-.06.45-.15.62-.25.17-.1.32-.22.45-.35.13-.13.23-.27.31-.4.08-.14.14-.28.19-.42.05-.15.08-.27.1-.38.02-.11.03-.2.03-.29v-6.7c0-.22-.03-.38-.08-.48-.05-.09-.1-.15-.17-.17-.09-.03-.17-.05-.26-.07-.11-.03-.21-.1-.29-.22-.08-.11-.11-.28-.11-.5v-.36h3.04v.36c0,.23-.04.39-.11.5-.08.12-.18.19-.3.22-.09.02-.17.04-.26.07-.06.02-.11.08-.16.17-.05.1-.08.26-.08.48v6.7c0,1.07-.41,1.92-1.22,2.51-.8.59-1.84.89-3.1.89ZM54.2,6.14v.13c0,.22.04.33.08.38.05.07.1.11.16.12.09.02.18.05.27.08.11.04.21.13.29.27.07.14.11.33.11.59v6.43c0,.47.07.9.22,1.28.15.38.35.71.6.97.26.26.57.49.93.67.36.18.76.32,1.18.4.43.08.89.13,1.37.13,1.21,0,2.21-.28,2.97-.84.75-.55,1.13-1.34,1.13-2.33v-6.7c0-.26.04-.45.11-.59.08-.14.17-.24.29-.27.09-.03.18-.06.27-.08.06-.01.12-.06.16-.12.03-.05.08-.16.08-.38v-.13h-2.6v.13c0,.22.04.33.08.38.05.07.1.11.16.12.09.02.18.05.27.08.12.04.22.13.29.27.07.14.11.33.11.59v6.7c0,.1,0,.2-.03.32-.02.12-.06.26-.11.42-.05.16-.12.31-.21.46-.08.15-.2.3-.34.45-.14.15-.31.28-.49.39-.19.11-.41.2-.68.27-.26.07-.55.1-.86.1-.48,0-.89-.08-1.22-.23-.34-.15-.6-.38-.77-.69-.17-.29-.29-.61-.37-.95-.07-.34-.1-.74-.1-1.19v-6.06c0-.26.04-.45.11-.59.08-.14.17-.24.29-.27.09-.03.18-.06.27-.08.06-.01.11-.06.16-.12.03-.05.08-.16.08-.38v-.13h-4.26Z" style="fill: #9a9b99;"/>
        </g>
        <g>
          <path d="M73.81,14.42v3h-8.54v-.29c0-.18.03-.32.1-.41.06-.09.14-.14.23-.16.09-.02.18-.05.27-.08.09-.03.17-.1.23-.22.06-.12.09-.29.09-.53V7.71c0-.23-.03-.41-.09-.53-.06-.12-.14-.19-.23-.22-.09-.03-.18-.05-.27-.08-.09-.02-.17-.08-.23-.16-.06-.09-.1-.22-.1-.41v-.29h4.65v.29c0,.16-.03.28-.08.37-.05.09-.12.14-.19.16-.08.02-.16.05-.25.08-.09.03-.18.06-.25.09-.08.03-.14.11-.19.23s-.08.27-.08.47v8.79h1.2c.5,0,.92-.04,1.27-.11.35-.08.6-.18.77-.3s.3-.26.4-.41.16-.3.2-.44c.04-.15.08-.28.12-.41s.12-.22.22-.3c.1-.08.25-.11.44-.11h.32Z" style="fill: #9a9b99;"/>
          <path d="M73.92,17.52h-8.76v-.4c0-.21.04-.36.12-.47.08-.11.18-.18.29-.2.09-.02.18-.05.26-.07.06-.02.12-.08.17-.17.05-.1.08-.26.08-.47V7.71c0-.21-.03-.37-.08-.47-.05-.09-.1-.15-.17-.17-.09-.03-.17-.05-.26-.07-.12-.03-.22-.1-.3-.2-.08-.11-.12-.26-.12-.47v-.4h4.87v.4c0,.18-.03.32-.09.42-.07.11-.16.18-.26.21-.07.02-.16.05-.25.07-.09.03-.17.06-.24.09-.05.02-.1.08-.14.17-.05.1-.07.24-.07.42v8.68h1.09c.49,0,.91-.04,1.25-.11.33-.07.57-.17.73-.28.16-.12.28-.24.37-.38.09-.14.15-.27.18-.41.04-.15.08-.29.13-.42.05-.14.14-.26.26-.35.12-.09.29-.14.51-.14h.43v3.22ZM65.38,17.3h8.32v-2.77h-.21c-.16,0-.29.03-.37.09-.09.06-.15.15-.18.25-.04.12-.08.26-.12.4-.04.16-.11.32-.21.48-.1.16-.24.31-.42.44-.18.13-.45.24-.81.32-.35.08-.79.12-1.29.12h-1.31V7.71c0-.21.03-.38.09-.51.06-.14.15-.23.25-.28.08-.04.17-.07.26-.1.09-.03.18-.06.26-.08.05-.01.09-.05.13-.11.04-.07.06-.17.06-.31v-.18h-4.43v.18c0,.16.03.28.07.34.05.07.1.1.17.12.09.02.19.05.28.08.12.04.22.13.29.27.07.14.11.33.11.58v8.02c0,.25-.04.44-.11.58-.08.14-.18.24-.3.27-.09.03-.19.06-.28.08-.06.01-.12.05-.16.12-.05.07-.07.18-.07.34v.18Z" style="fill: #9a9b99;"/>
        </g>
        <g>
          <path d="M80.71,14.14h-3.77l-.47,1.09c-.16.36-.25.65-.25.85,0,.16.04.27.11.34.07.07.16.11.27.11.11,0,.21.02.32.03.11.01.2.06.27.16.07.1.11.24.11.44v.25h-3.38v-.25c0-.17.01-.3.04-.38.02-.08.06-.14.11-.17.05-.03.11-.05.17-.06.06,0,.14-.03.23-.07.09-.04.18-.1.28-.18.1-.08.21-.22.33-.42.12-.2.24-.45.36-.75l2.88-7.35-.14-.37s-.02-.06-.07-.15c-.05-.09-.08-.18-.11-.27-.03-.08-.05-.14-.05-.17,0-.04,0-.07.02-.1.02-.03.04-.06.08-.09.04-.03.07-.05.09-.06.02-.01.06-.03.11-.05.05-.02.08-.03.09-.04l1.38-.65c.17-.1.3-.15.39-.15.03,0,.05,0,.08.02.02.01.05.03.07.06.02.03.04.06.06.08.02.02.04.06.06.1.02.04.03.08.04.11s.02.07.04.12c.02.05.03.09.04.11l3.74,9.47c.09.24.19.41.32.53s.23.18.33.2c.1.02.2.04.28.06.09.02.16.07.21.17.05.09.08.24.08.45v.25h-4.84v-.25c0-.2.03-.35.09-.45.06-.1.13-.16.22-.18.09-.02.18-.03.26-.04.09,0,.16-.03.23-.08.06-.05.09-.14.09-.26,0-.11-.05-.28-.15-.51l-.63-1.49ZM78.82,9.19l-1.57,4.05h3.19l-1.61-4.05Z" style="fill: #9a9b99;"/>
          <path d="M85.55,17.52h-5.06v-.36c0-.22.03-.39.11-.51.08-.13.17-.21.29-.23.09-.02.19-.03.28-.04.07,0,.12-.02.16-.06.04-.03.05-.12.05-.18s-.02-.2-.14-.47l-.6-1.43h-3.62l-.44,1.02c-.16.35-.24.62-.24.81,0,.13.03.21.08.26.06.05.12.08.2.09.11,0,.21.02.32.03.14.01.26.08.35.2.09.12.13.28.13.51v.36h-3.61v-.36c0-.18.01-.31.04-.41.03-.11.09-.19.16-.24.06-.04.13-.06.21-.07.05,0,.12-.03.2-.06.08-.04.17-.09.25-.16.09-.07.19-.2.3-.39.12-.19.23-.44.35-.73l2.86-7.31-.13-.35s-.03-.06-.06-.12c-.05-.1-.09-.19-.12-.28-.05-.13-.05-.18-.05-.21,0-.05.01-.11.04-.15.02-.05.06-.09.11-.13.04-.03.08-.05.1-.07.03-.01.06-.03.11-.06.05-.02.07-.03.08-.04l1.38-.65c.24-.15.41-.2.55-.14.04.02.08.05.11.1.02.03.04.05.06.08.03.03.05.08.07.13.02.05.03.08.05.11.01.03.03.07.04.13.01.04.02.08.03.09l3.74,9.48c.08.22.18.39.29.49.1.1.2.16.28.17.1.02.2.04.29.06.12.02.22.1.29.22.06.11.09.28.09.51v.36ZM80.71,17.3h4.62v-.13c0-.24-.04-.35-.06-.4-.04-.06-.08-.1-.14-.11-.09-.02-.18-.04-.28-.06-.12-.02-.25-.1-.39-.23-.13-.13-.25-.32-.34-.57l-3.74-9.47s-.02-.06-.04-.12c-.02-.05-.03-.09-.04-.12,0-.03-.02-.06-.04-.1-.02-.05-.03-.07-.04-.08-.02-.02-.04-.05-.06-.08-.01-.02-.02-.02-.02-.02-.04-.02-.11-.02-.36.13l-1.39.65s-.04.02-.09.04c-.04.02-.08.04-.1.05-.02.01-.05.03-.08.05-.02.02-.04.03-.04.05,0,.02-.01.03-.01.05,0,0,0,.03.04.13.03.08.07.17.11.26.05.1.07.14.07.17l.15.4-.02.04-2.88,7.35c-.12.3-.24.56-.36.77-.13.21-.25.36-.35.45-.1.08-.21.15-.31.19-.1.04-.19.07-.26.08-.05,0-.09.02-.13.04-.02.01-.05.05-.06.1-.02.07-.03.19-.03.35v.13h3.16v-.13c0-.17-.03-.3-.09-.37-.05-.07-.12-.11-.2-.12-.11-.01-.21-.02-.32-.03-.13,0-.24-.06-.34-.14-.1-.09-.15-.23-.15-.42,0-.22.08-.52.25-.9l.49-1.16h3.92l.66,1.56c.11.25.16.43.16.56,0,.16-.04.28-.13.35-.08.07-.18.1-.29.11-.08,0-.17.02-.25.03-.06.01-.1.05-.15.13-.05.08-.08.22-.08.4v.13ZM80.6,13.35h-3.51l1.73-4.46,1.78,4.46ZM77.41,13.13h2.86l-1.45-3.63-1.41,3.63Z" style="fill: #9a9b99;"/>
        </g>
        <g>
          <path d="M89.56,12.11v3.61c0,.23.03.41.09.53.06.12.14.19.23.22.09.03.18.05.26.08.09.02.16.08.23.16.06.09.09.22.09.41v.29h-4.49v-.29c0-.18.03-.32.1-.41.06-.09.14-.14.23-.16.09-.02.18-.05.26-.08.09-.03.17-.1.23-.22.06-.12.1-.29.1-.53V7.71c0-.23-.03-.41-.1-.53-.06-.12-.14-.19-.23-.22-.09-.03-.18-.05-.26-.08-.09-.02-.17-.08-.23-.16-.06-.09-.1-.22-.1-.41v-.29h6.4c.25,0,.5.03.77.09.26.06.53.16.81.3.27.14.52.31.74.52.22.21.39.47.53.79.14.32.21.68.21,1.08,0,.44-.07.83-.21,1.17-.14.34-.33.61-.55.82-.22.21-.49.38-.79.51-.3.13-.6.23-.9.28-.3.05-.61.07-.93.07h-.43v.03c.41.03.75.1,1.01.22.26.12.47.27.62.45.15.18.34.46.57.84l1.79,2.96c.11.17.23.3.36.37s.25.11.34.1.17.03.23.11c.06.07.09.21.09.4v.29h-3.53l-2.23-4.06s-.04-.07-.1-.17c-.06-.1-.09-.17-.11-.21s-.06-.1-.12-.2c-.06-.1-.11-.16-.14-.21-.04-.04-.09-.1-.15-.17-.06-.07-.12-.12-.17-.15s-.11-.06-.17-.09c-.06-.03-.13-.04-.19-.04h-.14ZM89.56,6.94v4.28h.76c1.51,0,2.27-.75,2.27-2.24,0-.3-.04-.56-.12-.8-.08-.24-.18-.43-.3-.59-.12-.15-.26-.28-.41-.38-.15-.1-.3-.17-.43-.21-.13-.04-.26-.06-.37-.06h-1.39Z" style="fill: #9a9b99;"/>
          <path d="M96.74,17.52h-3.71l-.03-.06-2.23-4.06s-.04-.07-.1-.17l-.11-.2s-.06-.1-.12-.19c-.05-.09-.1-.16-.13-.2-.04-.04-.08-.1-.14-.17-.05-.06-.1-.1-.14-.13-.05-.03-.1-.06-.16-.08-.05-.02-.1-.03-.15-.03h-.03v3.5c0,.21.03.37.08.47.05.09.1.15.17.17.09.03.17.05.26.07.11.03.21.1.29.2.08.11.12.26.12.47v.4h-4.71v-.4c0-.21.04-.36.12-.47.08-.11.18-.18.29-.2.08-.02.17-.05.26-.07.06-.02.12-.08.16-.17.05-.1.08-.26.08-.47V7.71c0-.21-.03-.37-.08-.47-.05-.09-.1-.15-.16-.17-.08-.03-.17-.05-.26-.07-.12-.03-.21-.1-.29-.2-.08-.11-.12-.26-.12-.47v-.4h6.51c.25,0,.52.03.79.09.27.06.55.16.83.31.28.14.54.32.76.54.23.22.41.49.56.83.14.34.21.71.21,1.12,0,.45-.07.86-.22,1.21-.15.35-.34.64-.58.86-.23.22-.51.4-.82.53-.31.14-.62.23-.93.28-.15.03-.31.04-.46.06.05.02.09.04.14.06.28.12.5.28.66.48.16.18.35.47.58.85l1.79,2.96c.09.16.2.27.32.33.15.08.23.09.28.09.13,0,.23.05.32.15.08.1.12.25.12.47v.4ZM93.16,17.3h3.36v-.18c0-.21-.04-.29-.07-.32-.04-.05-.08-.07-.14-.07h-.02c-.11,0-.23-.04-.38-.12-.15-.08-.29-.22-.4-.41l-1.79-2.96c-.22-.37-.41-.65-.56-.82-.14-.17-.34-.31-.59-.42-.25-.11-.58-.18-.97-.21h-.1v-.25h.55c.31,0,.62-.02.91-.07.29-.05.58-.14.87-.27.29-.13.55-.29.76-.49.21-.2.39-.46.52-.78.14-.33.2-.7.2-1.12,0-.38-.07-.73-.2-1.03-.13-.31-.3-.56-.5-.75-.21-.2-.45-.37-.71-.5-.26-.13-.53-.23-.78-.29-.25-.06-.5-.08-.74-.08h-6.28v.18c0,.16.03.28.07.34.05.07.1.1.17.12.09.02.18.05.27.08.11.04.21.13.29.27.07.14.11.33.11.58v8.02c0,.25-.04.44-.11.58-.08.14-.18.24-.29.27-.09.03-.18.06-.27.08-.06.01-.11.05-.16.12-.05.07-.07.18-.07.34v.18h4.27v-.18c0-.16-.03-.28-.07-.34-.05-.07-.1-.1-.16-.12-.09-.02-.18-.05-.27-.08-.12-.04-.22-.13-.29-.27-.07-.14-.11-.33-.11-.58v-3.72h.25c.08,0,.16.02.23.05.07.03.13.06.19.09.06.04.13.1.2.17.06.07.11.13.15.17.04.05.09.12.15.22.06.1.1.16.12.2l.12.21c.05.1.08.15.09.17l2.2,4.01ZM90.32,11.32h-.87v-4.5h1.5c.13,0,.26.02.41.07.14.04.29.12.45.23.16.11.31.24.44.4.13.16.24.37.32.62.09.25.13.53.13.84,0,1.56-.8,2.35-2.38,2.35ZM89.67,11.1h.65c1.45,0,2.16-.7,2.16-2.13,0-.28-.04-.54-.12-.77-.08-.23-.17-.41-.29-.55-.11-.14-.24-.26-.39-.35-.15-.09-.28-.16-.4-.2-.12-.04-.23-.06-.34-.06h-1.28v4.06Z" style="fill: #9a9b99;"/>
        </g>
        <path d="M31.66,6.85c-.76.02-1.55.04-2.33.08-.13,0-.26.08-.38.12-.11.04-.22.09-.34.12-.31.08-.49-.05-.5-.36-.01-.31,0-.61,0-.96.08,0,.15,0,.22,0,3.2,0,6.41,0,9.61,0,.2,0,.27.05.25.25-.02.19,0,.39,0,.58,0,.48-.24.65-.67.44-.36-.18-.73-.24-1.12-.24-.59,0-1.18,0-1.78,0,0,.72,0,1.41,0,2.1,0,.09,0,.18,0,.27,0,2.14,0,4.28,0,6.42,0,.14.01.28.03.42.03.18.13.29.31.34.61.17.69.29.69.93,0,.07,0,.15,0,.24h-5.06c.03-.25.03-.5.09-.74.05-.22.23-.33.45-.39.46-.12.51-.19.51-.67,0-2.11,0-4.22,0-6.33v-2.63Z" style="fill: #9a9b99;"/>
        <path d="M47.19,6.85c-.76.02-1.55.04-2.33.08-.13,0-.26.08-.38.12-.11.04-.22.09-.34.12-.31.08-.49-.05-.5-.36-.01-.31,0-.61,0-.96.08,0,.15,0,.22,0,3.2,0,6.41,0,9.61,0,.2,0,.27.05.25.25-.02.19,0,.39,0,.58,0,.48-.24.65-.67.44-.36-.18-.73-.24-1.12-.24-.59,0-1.18,0-1.78,0,0,.72,0,1.41,0,2.1,0,.09,0,.18,0,.27,0,2.14,0,4.28,0,6.42,0,.14.01.28.03.42.03.18.13.29.31.34.61.17.69.29.69.93,0,.07,0,.15,0,.24h-5.06c.03-.25.03-.5.09-.74.05-.22.23-.33.45-.39.46-.12.51-.19.51-.67,0-2.11,0-4.22,0-6.33v-2.63Z" style="fill: #9a9b99;"/>
      </g>
    </g>
  </g>
</svg>