<?xml version="1.0" encoding="UTF-8"?>
<svg id="uuid-f65fe9a3-f40d-4dc1-be73-c1b22f39dbe5" data-name="Capa 2" xmlns="http://www.w3.org/2000/svg" viewBox="0 0 148.56 21.44">
  <g id="uuid-e5f89192-bf06-41f3-ba1f-c955424b714e" data-name="Capa 1">
    <g>
      <path d="M58.47,12.39l-4.02,8.88c-.23.18-.9.29-1.08-.02l-4.11-8.95-1.41,8.78c-.94.2-1.88.24-2.91-.03l2.79-15.68c.08-.43.98-.38,1.15-.03l5.04,10.65,5.06-10.69c.17-.36.84-.26,1.12-.02l2.72,15.39c.04.22-.08.36-.2.5-.9.03-1.77.13-2.66-.08l-1.49-8.7Z" style="fill: #9a9b99;"/>
      <path d="M128.83,21.14l-3.1-6.14c-.84-.08-1.63-.05-2.52-.01l-.06,6.06c-.97.2-1.92.18-2.93.01l-.02-15.26c0-.27.15-.56.44-.55l6.92.05c3.08.02,5.21,3.11,4.44,6.04-.43,1.64-1.66,2.73-3.19,3.43l3.11,5.8c.54,1.01-2.4.52-3.09.58ZM127.27,12.44c1.25-.14,2-1.37,1.89-2.44-.11-1.07-1.02-1.99-2.17-2h-3.76s0,4.49,0,4.49c1.36-.05,2.64.1,4.04-.06Z" style="fill: #9a9b99;"/>
      <path d="M105.3,9.98c.36.32.38.66.19,1.04-1.21,2.4-.29,5.25,1.97,6.59,2.3,1.36,5.27.72,6.83-1.55,1.38-2,1.1-4.6-.56-6.33-1.64-1.71-4.15-2.1-6.34-.88-.54-.58-1.8-1.73-1.72-2.19.12-.65,4.65-2.81,8.72-.18,2.38,1.54,3.87,4.21,3.71,7.24-.25,4.55-4.2,7.89-8.75,7.52-3.54-.28-6.46-2.73-7.17-6.22-.43-2.11-.1-4.21,1.01-6.04.17-.28.53-.41.79-.17l1.31,1.18Z" style="fill: #9a9b99;"/>
      <path d="M99.89,20.7c0,.82-2.24.42-2.93.39l-.06-6.62-7.4.02-.02,6.22c0,.36-.36.5-.67.47-.77-.04-1.46.07-2.31-.09l-.03-15.29c0-.92,2.1-.48,2.97-.46l.09,6.37h7.38s.05-6.35.05-6.35c.97-.17,1.88-.17,2.93-.01l.02,15.34Z" style="fill: #9a9b99;"/>
      <path d="M9.69,5.42c.77-.07,3.04-.43,3.04.39l-.06,9.99c-.02,3.35-3.04,5.63-6.32,5.63S.04,19,.03,15.58L0,5.84c0-.29.23-.54.52-.52.86.04,1.65-.11,2.52.12l.04,9.93c0,1.86,1.47,3.1,3.28,3.09s3.28-1.19,3.29-3l.05-10.04Z" style="fill: #9a9b99;"/>
      <path d="M144.36,18.29l-6.76-.02-1.41,2.84c-.52-.01-3.26.45-2.82-.52l7.1-15.3c.14-.29.82-.44.99-.08l7.04,15.27c.07.15.12.6-.1.62-.79.07-1.96.27-2.66-.07-.66-.74-.81-1.79-1.38-2.72ZM143.19,15.67l-2.26-4.92-2.2,4.89c1.48.16,2.89.12,4.46.02Z" style="fill: #9a9b99;"/>
      <path d="M74.87,18.32l-6.74-.04c-.63.83-.72,2.02-1.46,2.76-.23.14-3.22.53-2.76-.46l7.07-15.21c.17-.37.84-.46,1.03-.03l6.9,14.98c.08.18.26.71-.01.76-.72.13-1.98.32-2.64-.06-.71-.69-.81-1.76-1.39-2.71ZM73.7,15.71l-2.24-4.91-2.23,4.96,4.47-.05Z" style="fill: #9a9b99;"/>
      <path d="M32.56,21.08c-1.06.2-1.94.18-2.94,0l-.03-13.01-3.83-.11c-.14-.87-.14-1.69,0-2.63h10.65c.14.93.14,1.77-.01,2.64l-3.8.08-.03,13.01Z" style="fill: #9a9b99;"/>
      <path d="M25.55,21.15l-8.64.06c-.27,0-.52-.24-.52-.52l.03-15.28c1.03-.15,1.91-.14,2.92,0l.03,13.03h5.64c.98.01.55,1.48.54,2.72Z" style="fill: #9a9b99;"/>
      <path d="M42,21.07c-.97.23-1.84.17-2.73.06-.23-.03-.27-.39-.27-.59l.02-15.1c.99-.21,1.92-.17,2.96-.02l.02,15.65Z" style="fill: #9a9b99;"/>
      <path d="M9.08,1.9l-4.52,1.97c-.42-.22-.87-1.04-.65-1.38L8.04,0c.53.52.81,1.09,1.03,1.9Z" style="fill: #9a9b99;"/>
      <path d="M110.32,12.02c.49.27.66.73.61,1.14-.06.45-.42.78-.79.86-.56.11-.98-.15-1.25-.63-.65-1.15-1.39-2.15-2.01-3.39,1.26.59,2.25,1.34,3.45,2.02Z" style="fill: #9a9b99;"/>
    </g>
  </g>
</svg>