<?xml version="1.0" encoding="UTF-8"?>
<svg id="uuid-df46a3bf-84c1-4bd3-a0a2-12df5c3bb391" data-name="Capa 2" xmlns="http://www.w3.org/2000/svg" viewBox="0 0 128.67 26.59">
  <g id="uuid-7c0f98b6-de23-4fec-a118-a546605961da" data-name="Capa 1">
    <g>
      <path d="M28.22,16.51l3.77.03c1.5,0,2.69-.44,3.57-1.32.56-.55,1.05-1.27,1.48-2.16.24-.41.43-.77.6-1.09h-3.04s.05.1.06.16v.03c0,.23-.22.66-.67,1.29-.25.42-.98.63-2.17.63h-2.23l1.16-2.11h-2.72l-3.94,7.05h2.73c.14-.15.61-.99,1.41-2.51" style="fill: #9a9b99;"/>
      <path d="M29.64,9.06l-1.2,2.15h9.53c.12-.32.2-.56.19-.74-.01-.22-.05-.39-.12-.51-.33-.61-.91-.87-1.62-.87h-.55l-6.2-.03h-.03Z" style="fill: #9a9b99;"/>
      <polygon points="38.67 19 42.63 11.97 39.86 11.97 35.93 19.02 38.65 19.02 38.67 19" style="fill: #9a9b99;"/>
      <polygon points="44.17 9.15 41.39 9.15 40.27 11.21 43.05 11.21 44.17 9.15" style="fill: #9a9b99;"/>
      <polygon points="55.47 19 59.44 11.97 56.67 11.97 52.73 19.02 55.46 19.02 55.47 19" style="fill: #9a9b99;"/>
      <polygon points="60.98 9.15 58.19 9.15 57.08 11.21 59.85 11.21 60.98 9.15" style="fill: #9a9b99;"/>
      <polygon points="71.69 19 75.65 11.97 72.89 11.97 68.95 19.02 71.67 19.02 71.69 19" style="fill: #9a9b99;"/>
      <polygon points="77.2 9.15 74.41 9.15 73.29 11.21 76.07 11.21 77.2 9.15" style="fill: #9a9b99;"/>
      <path d="M48.09,19c.44-.04.79-.1,1.04-.18,1.06-.33,1.89-.92,2.49-1.77l2.35-4.23c.18-.31.34-.59.47-.85h-2.99s.02.06.02.1c0,.25-.43,1-1.19,2.47-.77,1.4-1.46,1.98-2.41,1.98h-2.84v-.03l2.5-4.51h-2.78l-3.89,7.05h2.74l4.48-.02Z" style="fill: #9a9b99;"/>
      <path d="M55.03,10.47c0-.21-.04-.39-.12-.54-.31-.58-.99-.87-2.03-.87h-6.46l-.03.03-1.17,2.12h9.62c.12-.31.19-.56.19-.74" style="fill: #9a9b99;"/>
      <path d="M65.5,18.73c.94-.3,1.77-.95,2.49-1.95.79-1.26,1.19-2.07,1.19-2.43v-.21l-.06-.27c-.23-.5-.81-.75-1.74-.75h-4.06c.12-.19.28-.68.93-1.15h-3.14c-.59.93-1.01,1.85-.8,2.41.18.46.88.72,2.26.72h3.62c-.04.23-.27.59-.78.96-.44.32-.87.42-1.22.42h-4.85c-.07,0-.39,0-.73,0l-1.43,2.54h7.03c.36-.03.79-.12,1.29-.29" style="fill: #9a9b99;"/>
      <path d="M72.26,9.09h-6.59c-1.7,0-3,.63-3.91,1.89-.05.08-.1.15-.15.23h9.49l1.16-2.12Z" style="fill: #9a9b99;"/>
      <path d="M93.85,10.42c0-.09-.04-.27-.06-.36-.12-.6-.86-.9-2.17-.9h-12.2l-1.15,2.06h15.39c.13-.33.21-.6.19-.8" style="fill: #9a9b99;"/>
      <path d="M93.25,11.97h-2.89s.03.06.03.1v.12c-.13.32-1.5,2.63-3.8,6.83h2.73l3.94-7.05Z" style="fill: #9a9b99;"/>
      <polygon points="80.6 11.97 77.85 11.97 73.94 19.02 76.63 19.02 80.6 11.97" style="fill: #9a9b99;"/>
      <polygon points="87.02 11.97 84.26 11.97 80.35 19.02 83.05 19.02 87.02 11.97" style="fill: #9a9b99;"/>
      <path d="M102.11,12.1v.09c0,.27-.37,1.12-.99,2.28-.61,1.27-1.5,2.04-2.48,2.04h-1.82c-.5,0-.75-.17-.75-.51v-.06c0-.29.58-1.25,1.04-2.08.31-.57,1.05-1.54,1.59-1.89h-3.21c-.38.65-.91,1.58-1.57,2.8-.91,1.49-1.36,2.48-1.36,2.97,0,.13.03.29.09.48.24.48.71.74,1.38.8h4.4c.81-.04,1.44-.16,1.89-.38.57-.22,1.19-.7,1.86-1.44.27-.37,1.04-1.75,2.32-4.14.24-.41.44-.77.61-1.09h-3s.03.08.03.13" style="fill: #9a9b99;"/>
      <path d="M105.6,10.2c-.22-.74-.83-1.11-1.83-1.11h-4.03c-1.34,0-2.57.64-3.68,1.92-.04.05-.08.12-.14.2h9.5c.13-.34.2-.6.2-.8l-.03-.21Z" style="fill: #9a9b99;"/>
      <path d="M15.03,19c.83-1.56,1.29-2.38,1.36-2.46h4.12l-1.3,2.46h2.67c.08-.09,1.2-2.09,3.36-6,.23-.38.42-.72.57-1.03h-2.95s.02.08.02.13v.12c0,.14-.35.77-1.04,1.89h-4.12c0-.05.93-1.98,1.56-2.14h-3.11l-2.74,4.91c-.36.65-.75,1.36-1.17,2.13v.02h2.74l.02-.02Z" style="fill: #9a9b99;"/>
      <path d="M26.33,10.51c0-.11-.03-.34-.06-.45-.19-.68-.96-.96-2-.96l-4.14.03c-.6.04-1.18.23-1.74.54-.44.18-1.03.69-1.77,1.53,0,0,0,.01,0,.02h9.54c.12-.3.18-.48.18-.71" style="fill: #9a9b99;"/>
      <path d="M4.31,16.42h4.27l-1.41,2.6h2.89l1.41-2.52s.02-.04.03-.06c.21-.44.24-.48.22-.68-.03-.41-2.31-.57-2.71-.57l.02-.13s2.3,0,2.75-.12c.45-.12.84-.55,1.21-1.16l.96-1.75h-2.98s-.14.42-.4.83c-.34.53-.91.92-2.09.97-.1,0-.2,0-.32,0h-2.41c0-.06.33-.67.98-1.81.05-.09.1-.18.16-.27h-2.83L0,19.02h2.83l1.48-2.6Z" style="fill: #9a9b99;"/>
      <path d="M14.41,11.22l.02-.03c.2-.46.31-.81.31-1.03l-.03-.22c-.07-.28-.21-.51-.41-.69-.38-.36-.98-.54-1.82-.54h-6.72l-1.4,2.51h10.06Z" style="fill: #9a9b99;"/>
      <path d="M14.41,11.22s0-.02.01-.03l-.02.03h0Z" style="fill: #9a9b99;"/>
      <path d="M11.8,7.29h1.42c.13-.21,2.01-3.63,2.01-3.63h-1.5c0,.06-.02.14-.06.25l-1.87,3.39Z" style="fill: #9a9b99;"/>
      <path d="M19.64,3.26l.59-1.05h-3.47s-.58,1.05-.58,1.05c.51,0,1.08,0,1.6,0,1,0,1.85,0,1.85,0" style="fill: #9a9b99;"/>
      <path d="M23.27,7.29l.72-1.27h-3.59s.39-.72.39-.72h1.99l.58-1.03h-1.98c.11-.22.26-.47.33-.61h-1.42c-.46.84-1.16,2.1-1.99,3.63h4.97Z" style="fill: #9a9b99;"/>
      <path d="M25.58,7.27l.74-1.29h2.11l-.71,1.31,1.44-.02.7-1.26s.01-.02.01-.03c.11-.22.12-.24.11-.33-.02-.2-1.14-.28-1.34-.28v-.06s1.15,0,1.37-.06c.22-.06.42-.27.6-.57l.52-1h-1.47s-.12.34-.25.55c-.17.26-.45.45-1.03.48-.05,0-.1,0-.16,0h-1.19s.16-.33.49-.89c.03-.04.05-.09.08-.14h-1.4l-2.01,3.6h1.4Z" style="fill: #9a9b99;"/>
      <path d="M31.38,2.97l-.02-.11c-.04-.14-.1-.25-.2-.34-.19-.18-.48-.27-.9-.27h-3.32l-.57,1.02h4.94c.04-.13.07-.23.07-.3" style="fill: #9a9b99;"/>
      <polygon points="7.97 7.28 10.01 3.66 8.58 3.66 6.56 7.29 7.95 7.29 7.97 7.28" style="fill: #9a9b99;"/>
      <polygon points="10.8 2.21 9.37 2.21 8.79 3.27 10.22 3.27 10.8 2.21" style="fill: #9a9b99;"/>
      <path d="M15.34,3.27h0c.09-.21.13-.35.13-.45v-.09c-.04-.12-.1-.21-.18-.29-.16-.15-.41-.23-.77-.23h-2.84l-.59,1.06h4.24Z" style="fill: #9a9b99;"/>
      <polygon points="16.99 3.66 14.96 7.29 16.36 7.29 16.37 7.28 18.41 3.66 16.99 3.66" style="fill: #9a9b99;"/>
      <polygon points="10.29 7.29 10.3 7.28 12.34 3.66 10.92 3.66 8.89 7.29 10.29 7.29" style="fill: #9a9b99;"/>
      <path d="M26.1,2.21h-5.02s-.22.37-.59,1.06h5.02l.59-1.06Z" style="fill: #9a9b99;"/>
      <path d="M122.72,3.77c1.04,0,1.88-.84,1.88-1.88s-.84-1.88-1.88-1.88-1.88.84-1.88,1.88.84,1.88,1.88,1.88" style="fill: #9a9b99;"/>
      <path d="M122.04,14.87c-.07-.05-.14-.1-.21-.14h0,0s-.05-.03-.07-.04l-1.08-.61-4.44-2.56h0s-.02,0-.02,0l-6.96,12.05-.32.55c-.04.06-.08.13-.12.2h0s0,0,0,0c-.01.02-.02.04-.03.06h0s0,0,0,0c-.08.2-.13.42-.13.65,0,.86.64,1.55,1.44,1.55.47,0,.89-.25,1.15-.62l.4-.69,1.85-3.2,7.59-2.03c.09-.02.18-.04.27-.07l.08-.02h0c1.05-.39,1.8-1.45,1.8-2.71,0-.55-.15-1.07-.4-1.51-.2-.34-.46-.64-.77-.86M117.97,17.85l-2.42.65,1.73-3,.89.51,2.12,1.22-2.31.62Z" style="fill: #9a9b99;"/>
      <path d="M109.41,13.61l.23.66.65-.11.17-.03,3.19-.54-1.36-.8,2.61-4.52,3.68-.78h0c.6-.16,1.04-.74,1.04-1.43,0-.81-.61-1.46-1.36-1.46-.12,0-.23.02-.34.05l-4.89,1.03h0s-3.26,5.63-3.26,5.63l-1.5-.88,1.07,3.01.06.17Z" style="fill: #9a9b99;"/>
      <polygon points="108.12 10.51 106.07 14 109.17 13.48 108.12 10.51" style="fill: #9a9b99;"/>
      <polygon points="111.6 17.29 113.67 13.76 110.53 14.3 111.6 17.29" style="fill: #9a9b99;"/>
      <polygon points="110.35 14.32 109.7 14.44 109.53 14.47 109.47 14.3 109.23 13.64 106.07 14.18 111.42 17.32 110.35 14.32" style="fill: #9a9b99;"/>
      <path d="M127.29,4.29c-.51,0-.96.28-1.2.7-.04.07-.07.15-.1.22h0s-.14.3-.14.3l-1,2.25s0,0,0,0h-2.97s0,0,0,0l-1.48,2.67s0,0,0,0h6.26s0,0,0,0v-.02s0,0,0,0c0,0,0,0,0,0l1.58-3.54.36-.81s0,0,0,0c.04-.13.06-.26.06-.4,0-.76-.62-1.38-1.38-1.38" style="fill: #9a9b99;"/>
    </g>
  </g>
</svg>