<?xml version="1.0" encoding="UTF-8"?>
<svg id="uuid-fc63a654-de1d-4d3c-9081-ae8ad46e5b06" data-name="Capa 2" xmlns="http://www.w3.org/2000/svg" viewBox="0 0 92.08 30.83">
  <g id="uuid-bc165287-0cd6-4cb8-ac7f-e8a32522fd3e" data-name="Capa 1">
    <g>
      <path d="M58.3,2.61h8.96v1.83h-6.91v4.92h5.61v1.86h-5.61v6.69h-2.05V2.61Z" style="fill: #9a9b99;"/>
      <path d="M81.5,2.61h10.36v1.83h-8.31v5.03h7.45v1.75h-7.45v4.92h8.53v1.86h-10.58V2.61Z" style="fill: #9a9b99;"/>
      <g>
        <path d="M.11,26.87h.85v3.83H.11v-3.83Z" style="fill: #9a9b99;"/>
        <path d="M4.3,26.8l2.71,2.22v-2.16h.85v3.9l-2.68-2.17-.03,2.11h-.85v-3.9Z" style="fill: #9a9b99;"/>
        <path d="M12.4,27.63h-1.19v-.76h3.23v.76h-1.19v3.07h-.85v-3.07Z" style="fill: #9a9b99;"/>
        <path d="M17.77,26.87h2.63v.76h-1.77v.83h1.56v.7h-1.56v.77h1.83v.76h-2.68v-3.83Z" style="fill: #9a9b99;"/>
        <path d="M23.79,26.87h1.67c.77,0,1.43.38,1.43,1.19,0,.52-.27,1-.73,1.2l.81,1.45h-1.05l-.67-1.29h-.61v1.29h-.85v-3.83ZM25.52,28.64c.28,0,.49-.27.49-.53s-.21-.48-.49-.48h-.88v1.01h.88Z" style="fill: #9a9b99;"/>
        <path d="M34.6,26.87h1.67c.77,0,1.43.38,1.43,1.19,0,.52-.27,1-.73,1.2l.81,1.45h-1.05l-.67-1.29h-.61v1.29h-.85v-3.83ZM36.33,28.64c.28,0,.49-.27.49-.53s-.21-.48-.49-.48h-.88v1.01h.88Z" style="fill: #9a9b99;"/>
        <path d="M41.12,30.7l1.95-3.9,1.96,3.9h-.94l-.24-.49h-1.56l-.23.49h-.94ZM42.6,29.56h.93l-.47-.96-.47.96Z" style="fill: #9a9b99;"/>
        <path d="M48.36,26.87h1.75c.81,0,1.4.56,1.4,1.37s-.6,1.38-1.41,1.38h-.78v1.08h-.96v-3.83ZM50.07,28.81c.32,0,.53-.24.53-.55s-.2-.55-.53-.55h-.75v1.11h.75Z" style="fill: #9a9b99;"/>
        <path d="M54.86,26.87h.85v3.83h-.85v-3.83Z" style="fill: #9a9b99;"/>
        <path d="M59.05,26.87h.96c1.23,0,1.97.77,1.97,1.92s-.74,1.91-1.97,1.91h-.96v-3.83ZM60.08,29.94c.66,0,1.09-.44,1.09-1.15s-.43-1.16-1.09-1.16h-.17v2.3h.17Z" style="fill: #9a9b99;"/>
        <path d="M65.32,26.87h.85v3.83h-.85v-3.83ZM66.08,25.59h.59l-.77.97h-.32l.5-.97Z" style="fill: #9a9b99;"/>
        <path d="M70.41,29.58c.04.39.42.55.78.55.31,0,.78-.12.78-.51,0-.82-2.44-.11-2.44-1.61,0-.88.81-1.27,1.58-1.27.99,0,1.51.45,1.65,1.19h-.9c-.1-.39-.43-.48-.73-.48-.28,0-.73.11-.73.47,0,.8,2.43.08,2.43,1.58,0,.93-.83,1.34-1.65,1.34-1.09,0-1.61-.59-1.68-1.26h.89Z" style="fill: #9a9b99;"/>
        <path d="M76.18,26.87h.85v3.83h-.85v-3.83Z" style="fill: #9a9b99;"/>
        <path d="M80.38,26.85l2.07,2.48,2.07-2.48v3.85h-.85v-1.54l-1.21,1.36-1.21-1.36v1.54h-.85v-3.85Z" style="fill: #9a9b99;"/>
        <path d="M89.92,26.73c1.22,0,2.06.84,2.06,2.05s-.84,2.05-2.06,2.05-2.05-.83-2.05-2.05.83-2.05,2.05-2.05ZM91.11,28.79c0-.72-.45-1.31-1.2-1.31s-1.2.59-1.2,1.31.45,1.3,1.2,1.3,1.2-.59,1.2-1.3Z" style="fill: #9a9b99;"/>
      </g>
      <polygon points="85.71 1.79 87.54 1.79 89.33 0 86.86 0 85.71 1.79" style="fill: #9a9b99;"/>
      <polygon points="38.79 13.64 32.77 13.64 36.2 6.78 39.61 13.64 39.6 13.64 41.59 17.65 41.77 18 44.03 18 36.2 2.42 28.36 18 30.63 18 31.99 15.24 39.59 15.24 38.79 13.64" style="fill: #9a9b99;"/>
      <path d="M12.85,14.33c-1.07,1.36-2.74,2.15-4.65,2.15-3.54,0-6.15-2.44-6.15-6.32s2.46-6.37,6.15-6.37c1.98,0,3.75.94,4.8,2.42h2.27c-1.19-2.68-3.97-4.23-7.13-4.23C3.39,1.97,0,5.14,0,10.15s3.39,8.18,8.14,8.18c3.15,0,5.83-1.48,7.05-4h-2.33Z" style="fill: #9a9b99;"/>
    </g>
  </g>
</svg>