<?xml version="1.0" encoding="UTF-8"?>
<svg id="uuid-90fe1893-a2f7-4ff0-b419-8b92a3dbe336" data-name="Capa 2" xmlns="http://www.w3.org/2000/svg" viewBox="0 0 90.31 44.28">
  <g id="uuid-19da3992-ad9e-4a69-9420-85472fbd5fd4" data-name="Capa 1">
    <g>
      <path d="M89.19,32.51c-.7-1.06-2.03-1.31-3.21-1.47-1.87-.27-3.76-.45-5.64-.6-9.79-.79-19.58,1.05-29.29,2.46-15.53,2.25-33.33,9.13-34.76,10.39-.31.29-.44.63-.3.98.01.04.08,0,.1-.04.02-.03.07-.06.13-.1,1.1-.69,10.72-4.98,31.08-8.53,9.07-1.52,18.26-2.27,27.45-2.18,2.33.02,4.65.09,6.98.23,2.27.13,4.6.42,6.57,1.64.1.06.55.34.88.6.17.13.42.04.45-.18.15-1.08.17-2.27-.44-3.19Z" style="fill: #9a9b99;"/>
      <path d="M68.79,9.55c.02-.48-.01-.96-.08-1.43-.03-.19-.06-.39-.1-.58-.07-.36-.16-.71-.27-1.06-.4-1.31-1.06-2.55-2-3.55-1.66-1.76-4.01-2.66-6.34-2.88-.55-.05-1.09-.07-1.62-.05-1.71.07-3.4.54-4.83,1.48-1.8,1.18-2.88,2.78-3.41,4.35-.38,1.14-.57,2.35-.55,3.56.09,1.2.48,1.83.75,2.1.38.37,1.68.13,2.04-.27.07-.08.04-.21-.06-.24-.07-.02-.16-.07-.27-.15-.71-3.49.89-6.78,3.66-8.19,1.81-.92,3.78-.89,5.76-.42,2.21.53,3.98,2.54,4.66,4.51.4,1.17.43,2.45.16,3.66-.41,1.84-1.51,3.54-3.06,4.62-1.44,1-3.26,1.45-5,1.22-.04-1.08-.08-2.02-.09-2.71-.02-1.51.12-3.11.79-4.48.68-1.41,1.85-2.2,3.34-2.51.07-.01.09-.1.04-.15-.16-.14-.35-.26-.53-.34-1.67-.75-4.14.33-5.07,1.71-.26.39-.47.81-.61,1.26-.07.21-.12.41-.17.63-.29,1.24-.33,2.54-.28,3.81.23,6.32.53,10.5-.4,13.41-.56,1.78-1.17,2.23-2.1,2.56-.08.03.43.28.51.27,2.66-.2,3.66-.76,4.36-3.03.48-1.57.41-5.34.29-8.61,1.31.24,2.68.18,3.96-.19,3.66-1.04,6.39-4.5,6.52-8.3Z" style="fill: #9a9b99;"/>
      <path d="M19.18,27.34c-.02.14-.03.27-.05.41-.33,2.43-1.23,4.86-3.07,6.56-1.49,1.38-3.41,2.25-5.39,2.64-1.9.38-3.94.33-5.77-.36C1.54,35.34-.74,31.3.22,27.34c.71-2.96,3.03-5.54,5.78-7.48-.18-.25-1.28-1.22-1.58-3.05-1.06-6.39,6.08-11.07,11.52-7.54.73.47,1.46,1.09,2.16,1.86.28.31.49.63.62.84.64,1.02-.2,1.93-.86,2.13-.03.01-.06,0-.08,0-.07-.02-.12-.09-.11-.16,0-.06-.02-.13-.05-.2,0,0,0,0,0,0-.47-1-1.23-1.84-2.19-2.41-1.07-.57-2.48-.83-3.68-.68-.53.09-1.04.25-1.52.49-.05.03-.1.06-.15.09,0,0-.02.01-.03.02-.24.15-.48.32-.71.51-.03.02-.06.05-.09.08-.48.4-1.04,1-1.43,1.84-.01.02-.02.04-.03.06-.32.8-.52,1.3-.49,2.17.03,1.16.59,1.93,1.39,2.17,1.01.31,1.77.21,2.62-.12.45-.17.97-.11,1.32.22.29.27.42.65.22,1.11-.39.91-1.64,1.14-2.48,1.39-.15.05-.3.1-.45.15-3.67,1.26-7.05,4.2-6.78,8.38.16,2.54,2.02,4.3,4.46,4.76,2.05.39,4.19-.11,5.88-1.33.5-.36.96-.79,1.36-1.26,1.55-1.79,2.44-4.29,2.17-6.66-.1-.83-.29-1.82-.79-2.52-.1-.14-.19-.22-.27-.26-.1-.05-.1-.19-.02-.25.05-.04.1-.07.16-.1.7-.42,1.59-.5,2.13.2.57.74.78,1.76.91,2.66.06.4.1.81.11,1.22.02.56,0,1.13-.06,1.69Z" style="fill: #9a9b99;"/>
      <path d="M75.71,21.52s0-1.72-.16-1.41c-.06.13-.21,1.22-.26,1.82-.2,1.25-.39,2.34-1.93,2.12-1.11-.16-.83-2.08-.6-3.57.23-1.49.88-4.5.71-4.99-.12-.35-.68-.67-1.21-.7-.39-.02-.74.06-.95.12-.1.03-.16.14-.09.23.06.07.1.1.14.27.01.07-.48,2.98-.77,4.41-.05.41-.13.83-.25,1.26-.26,1-.65,1.88-1.09,2.56,0,0,0,0,0,.01-.22.35-.46.65-.72.87,0,0,0,0,0,0-.43.39-.88.57-1.28.46-.1-.03-.2-.07-.29-.13-.15-.08-.26-.21-.35-.37-.54-.83-.63-2.53-.16-4.37.31-.95.55-1.63.66-1.79.12-.19.24-.29.34-.35.12-.07.12-.24,0-.32-.03-.02-.42-.3-.95-.44-.66-.16-1.41.03-1.82,1.31-.49,1.29-1.1,3.44-.73,5.58.29,1.69,1.21,3.46,4.12,3.12,1.36-.16,2.29-1.58,2.59-2.24.05-.12.23-.12.28.01.25.71,1.03,1.34,2.19,1.31,1.74-.04,3.01-1.61,3.47-2.87,0,.02.02.03.03.05-.39-.96-.74-.94-.92-1.96Z" style="fill: #9a9b99;"/>
      <path d="M21.23,23.3c.67-.13,1.97-.17,1.7,1.67.88-1.77,2.11-3.26,3.51-2.77,1.41.49,1.23,2.75.98,5.73-.25,2.98-.19,4.12.59,4.35s2.12-2.27,2.69-5.73c0-.05.53.09.54.1.09.09.13.24.16.36.11.38-.21.43-.2.82.05,1.8.28,3.23-.99,4.88-.63.82-1.83,1.39-2.84,1.16-1.54-.34-2.26-1.31-1.8-6.05.46-4.74-.81-2.57-1.32-1.36-.52,1.21-.59,1.82-1.8,7.08-.11.9-.71,1.54-1.36,1.44s-1.1-.47-.78-2.27c.33-1.79,1.08-8.27.97-8.84-.03-.17-.08-.28-.14-.36-.07-.08-.01-.21.09-.23Z" style="fill: #9a9b99;"/>
      <path d="M20.25,15.78c-.04-.14.13-.24.23-.14.47.44,1.18.67,1.77.74,2.1.25,9.39-2.13,11.31-2.85,3.58-1.35,8.13-3.22,12.02-2.64.94.14,1.81,1.47,2.21,2.27.09.18-.09.38-.28.29-.61-.28-1.56-.62-1.68-.65-2.57-.54-7.47,1.27-9.89,2.07-1.91.63-3.82,1.26-5.73,1.9-.97.32-3.99,1.29-4.95,1.62-.86.29-1.76.44-2.64.11-1.6-.77-2.17-1.99-2.36-2.71Z" style="fill: #9a9b99;"/>
      <path d="M30.37,28.9c.02-1.35,2.52-18.9,3.02-21.65.25-1.37.5-1.33.94-1.26s.67.21.49,1.44c-.18,1.23-1.77,18.67-2.18,21.13-.49,2.97,1.39,3.24,3.21-.28.24-.46.79-1.16,1.35-1.21,1.3-.12.44,1.78.16,2.32-.62,1.2-1.1,1.96-2.24,2.73-.65.44-1.42.73-2.22.53-1.44-.35-2.37-1.6-2.51-2.94-.03-.27-.04-.54-.03-.81Z" style="fill: #9a9b99;"/>
      <path d="M46.07,28.08c-.39-.49-1.08-2.02-1.08-2.02,0,0-.07,4.08-1.83,3.89-1.17-.12-.01-5.58.74-8.19.75-2.61-1.07-2.49-1.55-2.14-1,.77-1.77,1.25-2.77,1.29-.03,0,.02-.33,0-.86,0-.24-.05-.48-.16-.69-.36-.69-1.23-1.01-1.97-.85-1.24.27-2.33,1.91-1.62,3.11.2.33.53.59.9.7.08.02.81.21.82.13-.12,3.66-2.4,7.01-2.4,7.01-.89,1.36.39,2.34.39,2.34,3.23-2.98,4.03-9.47,4.03-9.47l2.34-.47c-.05,0-.84,5.81-.88,6.2-.08.85-.16,2.09.41,2.83.65.83,1.69.97,2.55.5.95-.52,2-1.68,1.99-3.18,0-.38.32.18.09-.11ZM37.63,20.81h-.09s-.4-.14-.42-.35c-.02-.21.33-.49.44-.36.11.13.07.72.07.72Z" style="fill: #9a9b99;"/>
      <path d="M89.82,21.58c-.32-.7-.7-1.36-1.09-2.01-.16-.29-.35-.58-.54-.86.08-.05.16-.09.25-.14,1.32-.61,2.33-2.09,1.65-3.59-.41-.9-1.29-1.51-2.26-1.6-1.7-.13-2.74,1.26-2.56,2.88.05.75.37,1.49.72,2.16-1.43,1.2-2.79,2.5-4.31,3.59-.28.21-.35.6-.14.89.21.28.6.34.89.14,1.2-.87,2.33-1.83,3.44-2.73.27-.22.54-.43.82-.64.31.57.63,1.17.91,1.75.62,1.21,1.14,2.65-.02,3.69-.59.58-1.54.76-2.33.54-.51-.13-.89-.39-1.07-.88-.19-.51.09-1.01.44-1.44.17-.2.17-.49-.01-.69-.19-.21-.52-.22-.73-.03-.46.42-.92,1.03-1.01,1.71-.25,1.88,1.59,2.94,3.23,2.97,3.37.17,5.13-2.71,3.72-5.71ZM87.06,14.8c.72-.45,1.78.21,1.78,1.03,0,.3-.18.57-.39.79-.26.26-.79.46-1.21.7-.24-.4-.43-.81-.53-1.25-.09-.49-.09-.99.34-1.27Z" style="fill: #9a9b99;"/>
      <path d="M83.71,21.79c-.23-.47-.3-1.13-1.45-.23-1.32,1.01-1.12.96-2.6,1.68-.24.12-.49.2-.75.23-1.63.2-1.56-1.5-1.16-2.8.1,0,.19,0,.29.01l.47.02c.89.05,1.77-.19,2.54-.61.95-.51,1.94-1.4,2.19-2.53.2-.91-.13-1.91-.86-2.52-2.91-2.14-5.88,2.01-6.67,4.48-.14.54-.21.78-.24,1.18-.19,1.51-.22,3.09.93,4.17.98.9,2.68.62,3.79-.04,1.24-.72,1.69-1.22,2.79-2.17.26-.23.47-.46.55-.5.12-.07.06-.17.11-.21s.13-.08.09-.16ZM78.12,19.47c.47-1.02,1.55-2.96,2.74-3.07.45-.01.76.44.71.87-.12.68-.71,1.19-1.26,1.57-.56.37-1.18.58-1.83.62,0,0-.22.01-.36.02,0,0,0,0,0-.01Z" style="fill: #9a9b99;"/>
      <path d="M53.31,26.18c-.23-.47-.52-1.15-1.41-.24-1.01.84-1.56,1.84-2.74,2.44-1.89.72-2.12-1.43-1.82-3.06.1,0,.19,0,.29.01l.47.02c.89.05,1.77-.19,2.54-.61.95-.51,1.94-1.4,2.19-2.53.2-.91-.13-1.91-.86-2.52-2.91-2.14-5.88,2.01-6.67,4.48-.14.54-.21.78-.24,1.18-.19,1.51.1,3.13,1.25,4.21.98.9,2.53.96,3.63.29,1.24-.72,1.82-1.9,2.47-2.57.32-.36.68-.82.86-.91.09-.04.08-.11.05-.19ZM47.72,24.11c.47-1.02,1.55-2.96,2.74-3.07.45-.01.76.44.71.87-.12.68-.71,1.19-1.26,1.57-.56.37-1.18.58-1.83.62,0,0-.22.01-.36.02,0,0,0,0,0-.01Z" style="fill: #9a9b99;"/>
    </g>
  </g>
</svg>