<?xml version="1.0" encoding="UTF-8"?>
<svg id="uuid-de2af4fa-b512-47fa-a96b-bbaac2eb19ed" data-name="Capa 2" xmlns="http://www.w3.org/2000/svg" viewBox="0 0 106.85 30.77">
  <g id="uuid-b4785d22-e907-4efd-b2d7-2d31510ae465" data-name="Capa 1">
    <g>
      <g>
        <path d="M28.19,10.86h3.46c.46,0,.83.37.83.83v9c0,.46-.37.83-.83.83h-3.46c-.46,0-.83-.37-.83-.83v-9c0-.46.37-.83.83-.83Z" style="fill: #9a9b99;"/>
        <path d="M85.42,5.16c4.85,0,8.79,3.9,8.79,8.68s-3.94,8.64-8.79,8.64-8.77-3.86-8.77-8.64,3.92-8.68,8.77-8.68ZM85.42,9.68c-2.3,0-4.17,1.85-4.17,4.13s1.88,4.13,4.17,4.13,4.2-1.87,4.2-4.13-1.88-4.13-4.2-4.13Z" style="fill: #9a9b99;"/>
        <path d="M73.1,5.52h-3.22c-.46,0-.83.37-.83.83v.08c-1.33-.8-2.88-1.26-4.55-1.26-4.85,0-8.77,3.9-8.77,8.68,0,4.78,3.91,8.64,8.77,8.64,1.66,0,3.22-.45,4.55-1.24v.11c0,.46.37.83.83.83h3.22c.46,0,.83-.37.83-.83V6.35c0-.46-.36-.83-.82-.83ZM64.49,17.96c-2.3,0-4.17-1.87-4.17-4.14,0-2.29,1.88-4.13,4.18-4.13,2.32,0,4.2,1.85,4.2,4.14,0,2.26-1.88,4.13-4.2,4.13Z" style="fill: #9a9b99;"/>
        <path d="M44.92,5.1c-1.5,0-2.9.38-4.13,1.05-.06-.4-.4-.7-.81-.7l-3.3-.02c-.45,0-.82.37-.82.82l.03,18.51c0,.45.37.82.82.82l3.3.02c.45,0,.82-.37.82-.82v-3.63c1.22.65,2.62,1.02,4.12,1.02,4.78,0,8.66-3.81,8.65-8.52,0-4.71-3.9-8.55-8.68-8.54ZM44.95,17.7c-2.26,0-4.11-1.84-4.12-4.07,0-2.25,1.84-4.08,4.1-4.08,2.29,0,4.14,1.81,4.14,4.06,0,2.23-1.84,4.08-4.13,4.08Z" style="fill: #9a9b99;"/>
        <circle cx="29.92" cy="6.99" r="2.93" style="fill: #9a9b99;"/>
        <path d="M21.03,12.82l.04,7.85c0,.46-.37.83-.83.84l-3.64.02c-.46,0-.83-.37-.84-.83l-.04-7.85c0-.15-.04-.3-.12-.42L8.96,1.35c-.33-.55.06-1.26.71-1.26l4.24-.02c.29,0,.57.15.72.41l2.98,4.99c.32.54,1.11.54,1.43,0L22,.43c.15-.25.42-.41.71-.41L26.95,0c.64,0,1.05.7.72,1.25l-6.53,11.15c-.08.13-.11.28-.11.42Z" style="fill: #9a9b99;"/>
      </g>
      <g>
        <path d="M23.36,28.14c.37,0,.72.15.95.39l-.24.24c-.16-.16-.42-.28-.71-.28-.53,0-.94.41-.94.97s.42.97.98.97c.34,0,.6-.19.75-.36l.26.23c-.23.28-.6.47-1.01.47-.77,0-1.35-.56-1.35-1.31s.56-1.31,1.31-1.31Z" style="fill: #9a9b99;"/>
        <path d="M28.72,30.77c-.73,0-1.3-.57-1.3-1.31s.57-1.31,1.3-1.31,1.3.57,1.3,1.31-.57,1.31-1.3,1.31ZM28.72,30.42c.53,0,.93-.41.93-.97s-.4-.97-.93-.97-.93.41-.93.97.4.97.93.97Z" style="fill: #9a9b99;"/>
        <path d="M34.5,28.14c.37,0,.72.15.95.39l-.24.24c-.16-.16-.42-.28-.71-.28-.53,0-.94.41-.94.97s.42.97.98.97c.34,0,.6-.19.75-.36l.26.23c-.23.28-.6.47-1.01.47-.77,0-1.35-.56-1.35-1.31s.56-1.31,1.31-1.31Z" style="fill: #9a9b99;"/>
        <path d="M38.77,28.18h.37v2.56h-.37v-2.56Z" style="fill: #9a9b99;"/>
        <path d="M42.65,28.18h.26l1.56,1.88v-1.88h.37v2.56h-.26l-1.56-1.88v1.88h-.37v-2.56Z" style="fill: #9a9b99;"/>
        <path d="M49.12,28.18h.26l1.08,2.56h-.39l-.27-.66h-1.09l-.27.66h-.38l1.08-2.56ZM49.65,29.73l-.4-.95-.4.95h.8Z" style="fill: #9a9b99;"/>
        <path d="M58.75,28.14c.37,0,.72.15.95.39l-.24.24c-.16-.16-.42-.28-.71-.28-.53,0-.94.41-.94.97s.42.97.98.97c.34,0,.6-.19.75-.36l.26.23c-.23.28-.6.47-1.01.47-.77,0-1.35-.56-1.35-1.31s.56-1.31,1.31-1.31Z" style="fill: #9a9b99;"/>
        <path d="M63.79,28.18h.26l1.08,2.56h-.39l-.27-.66h-1.09l-.27.66h-.38l1.08-2.56ZM64.32,29.73l-.4-.95-.4.95h.8Z" style="fill: #9a9b99;"/>
        <path d="M68.95,30.42c.21,0,.46-.13.46-.38s-.26-.37-.53-.47c-.13-.05-.26-.11-.37-.18-.19-.12-.32-.3-.32-.57,0-.37.33-.68.79-.68.33,0,.56.14.7.26l-.22.27c-.14-.12-.3-.18-.46-.18-.22,0-.43.12-.43.34,0,.2.24.31.51.42.13.05.26.11.38.18.17.11.34.3.34.6,0,.44-.37.74-.82.74-.34,0-.67-.15-.89-.43l.26-.22c.15.16.33.3.62.3Z" style="fill: #9a9b99;"/>
        <path d="M73.1,28.18h1.48v.35h-1.11v.66h.85v.35h-.85v.86h1.15v.35h-1.52v-2.56Z" style="fill: #9a9b99;"/>
        <path d="M78.33,30.73h-.37v-2.56h.91c.24,0,.39.05.5.15.16.13.26.31.26.53s-.1.4-.26.53c-.09.07-.17.11-.3.14l.93,1.22h-.45l-.92-1.21h-.3v1.21ZM79.16,29.09c.06-.06.1-.14.1-.23s-.04-.18-.1-.23c-.06-.06-.14-.1-.31-.1h-.52v.66h.52c.17,0,.25-.04.31-.09Z" style="fill: #9a9b99;"/>
        <path d="M83.91,28.18h.26l1.08,2.56h-.39l-.27-.66h-1.09l-.27.66h-.38l1.08-2.56ZM84.44,29.73l-.4-.95-.4.95h.8Z" style="fill: #9a9b99;"/>
      </g>
      <circle cx="4.7" cy="14.09" r="4.7" style="fill: #9a9b99;"/>
      <circle cx="102.13" cy="14.11" r="4.72" style="fill: #9a9b99;"/>
    </g>
  </g>
</svg>