<?xml version="1.0" encoding="UTF-8"?>
<svg id="uuid-a42a97aa-db27-45a1-afe2-c01e070ab0c6" data-name="Capa 2" xmlns="http://www.w3.org/2000/svg" viewBox="0 0 300 300">
  <g id="uuid-640cb511-e466-4952-8be6-34064a324ebc" data-name="Capa 1">
    <circle cx="150" cy="150" r="150" style="fill: #1d1d1b;"/>
    <g>
      <polygon points="149.08 164.67 137.79 184.24 153.56 180.01 168.64 175.97 154.85 168.01 149.08 164.67" style="fill: none;"/>
      <circle cx="184.53" cy="75.92" r="12.29" style="fill: #fff;"/>
      <path d="M180.11,160.59c-.45-.33-.91-.63-1.39-.91h0s-.03-.02-.03-.02c-.16-.09-.32-.18-.48-.27l-7.03-3.96-28.96-16.72-.03.05-.11-.06-45.37,78.58-2.1,3.58c-.28.41-.53.84-.76,1.29h0s0,0,0,0c-.07.14-.13.28-.19.42l-.03.06h0c-.55,1.29-.87,2.73-.87,4.24,0,5.58,4.2,10.11,9.38,10.11,3.08,0,5.81-1.6,7.53-4.07l2.61-4.49,12.03-20.84,49.46-13.25c.59-.12,1.18-.28,1.74-.47l.53-.14v-.04c6.8-2.5,11.7-9.45,11.7-17.63,0-3.61-.96-6.98-2.61-9.84-1.29-2.23-3.01-4.15-5.03-5.61ZM153.56,180.01l-15.77,4.23,11.29-19.56,5.77,3.33,13.79,7.96-15.08,4.04Z" style="fill: #fff;"/>
      <path d="M97.75,152.4l1.52,4.27,4.26-.72,1.13-.19,20.77-3.52-8.88-5.21,17.01-29.45,24.01-5.08v-.05c3.89-1,6.8-4.77,6.8-9.28,0-5.27-3.97-9.54-8.86-9.54-.77,0-1.51.1-2.22.3l-31.89,6.75-.06-.04-21.22,36.76-9.76-5.72,7.01,19.64.39,1.08Z" style="fill: #fff;"/>
      <polygon points="89.33 132.18 75.99 154.94 96.23 151.51 89.33 132.18" style="fill: #fff;"/>
      <polygon points="112.03 176.38 125.51 153.38 105.05 156.84 112.03 176.38" style="fill: #fff;"/>
      <polygon points="103.92 157.03 99.66 157.76 98.52 157.95 98.14 156.86 96.61 152.59 75.99 156.09 110.88 176.54 103.92 157.03" style="fill: #fff;"/>
      <path d="M214.37,91.57c-3.35,0-6.28,1.84-7.82,4.56-.26.46-.49.95-.66,1.46h0s-.88,1.96-.88,1.96l-6.54,14.66s-.01.02-.03.02h-19.34s-.02,0-.02.01l-9.67,17.4s0,.04.02.04h40.8s.03-.01.03-.03v-.12s.02-.03.04-.03c.01,0,.03,0,.04-.01l10.31-23.1,2.33-5.26s0,0,0,0c.25-.83.39-1.7.39-2.61,0-4.95-4.02-8.97-8.97-8.97Z" style="fill: #fff;"/>
    </g>
  </g>
</svg>