<?xml version="1.0" encoding="UTF-8"?>
<svg id="uuid-a76fcc76-bcfd-4320-b872-8b06efe7fea9" data-name="Capa 2" xmlns="http://www.w3.org/2000/svg" viewBox="0 0 6.79 13.13">
  <g id="uuid-18b2c5b6-d420-404f-a37f-bbc33eb7cb7c" data-name="Capa 1">
    <path d="M4.41,13.13H1.98c0-1.99,0-3.94,0-5.96H0c0-.79,0-1.51,0-2.31h1.92c.16-1.57-.29-3.27,1.27-4.33C3.99,0,5.18-.13,6.79.13v.95c0,.33,0,.66,0,1.11-.44,0-.85-.01-1.26,0-.78.03-1.07.31-1.12,1.07-.03.49,0,.98,0,1.55h2.31c-.1.8-.19,1.52-.29,2.32h-2.02c0,2.04,0,3.99,0,6Z" style="fill: #fff;"/>
  </g>
</svg>