<?xml version="1.0" encoding="UTF-8"?>
<svg id="uuid-f46017ff-1634-48c3-97c9-d04a6306ff81" data-name="Capa 2" xmlns="http://www.w3.org/2000/svg" viewBox="0 0 13.52 13.5">
  <g id="uuid-b493d32a-1eb5-40fc-aed5-926f6f7aab6c" data-name="Capa 1">
    <g>
      <path d="M6.66,13.48c-1.04,0-2.07.05-3.11-.01-1.97-.11-3.4-1.44-3.48-3.39-.09-2.22-.09-4.45,0-6.68C.14,1.57,1.4.2,3.2.1c2.37-.13,4.76-.13,7.14,0,1.75.09,3.02,1.45,3.1,3.23.1,2.25.11,4.52.01,6.77-.08,1.93-1.48,3.25-3.4,3.37-1.13.07-2.26.01-3.39.01h0ZM6.82,1.21s0,0,0,0c-1,0-2.01-.04-3.01,0-1.61.08-2.56,1.03-2.6,2.64-.04,1.95-.05,3.9,0,5.84.04,1.58.99,2.57,2.52,2.62,2.01.06,4.02.06,6.03,0,1.49-.04,2.48-.96,2.53-2.4.07-2.07.08-4.15,0-6.22-.06-1.55-1.07-2.44-2.65-2.49-.94-.03-1.88,0-2.83,0Z" style="fill: #fff;"/>
      <path d="M6.75,3.27c1.98,0,3.51,1.54,3.49,3.52-.01,1.9-1.58,3.47-3.48,3.47-1.93,0-3.52-1.61-3.5-3.55.02-1.92,1.56-3.44,3.48-3.44ZM6.78,9.02c1.26-.01,2.27-1.06,2.24-2.31-.03-1.21-1.03-2.21-2.24-2.23-1.24-.02-2.27,1.02-2.28,2.28,0,1.26,1.02,2.27,2.28,2.26Z" style="fill: #fff;"/>
      <path d="M11.04,2.75c0,.44-.36.8-.8.8s-.8-.36-.8-.8.36-.8.8-.8.8.36.8.8Z" style="fill: #fff;"/>
    </g>
  </g>
</svg>