<?xml version="1.0" encoding="UTF-8"?>
<svg id="uuid-b6dba8a9-be95-4e81-9771-c8054e67627e" data-name="Capa 2" xmlns="http://www.w3.org/2000/svg" viewBox="0 0 12.75 12.75">
  <g id="uuid-0599a53f-9004-4e0b-828c-bb07ac0bcbac" data-name="Capa 1">
    <g>
      <path d="M12.75,12.75h-2.63c0-.99,0-1.97,0-2.94,0-.71-.02-1.43-.06-2.14-.05-.74-.41-1.24-1.2-1.3-.77-.05-1.37.26-1.54,1.05-.12.51-.12,1.06-.13,1.59-.02,1.22,0,2.43,0,3.71h-2.59c0-2.78,0-5.58,0-8.44h2.41c.03.31.05.59.06.69.81-.31,1.62-.82,2.46-.89,1.91-.18,3,.85,3.2,2.79.04.41.04.83.04,1.25,0,1.52,0,3.03,0,4.64Z" style="fill: #fff;"/>
      <path d="M2.81,12.75H.26c0-2.82,0-5.6,0-8.45h2.55c0,2.82,0,5.6,0,8.45Z" style="fill: #fff;"/>
      <path d="M3.05,1.54c0,.81-.73,1.53-1.55,1.53C.67,3.07,0,2.38,0,1.53,0,.68.68,0,1.52,0c.82,0,1.54.72,1.53,1.54Z" style="fill: #fff;"/>
    </g>
  </g>
</svg>