<?xml version="1.0" encoding="UTF-8"?>
<svg id="Capa_1" data-name="Capa 1" xmlns="http://www.w3.org/2000/svg" xmlns:xlink="http://www.w3.org/1999/xlink" viewBox="0 0 421.62 49.87">
  <defs>
    <style>
      .cls-1 {
        fill: url(#Degradado_sin_nombre_131-9);
      }

      .cls-2 {
        fill: url(#Degradado_sin_nombre_131);
      }

      .cls-3 {
        fill: none;
      }

      .cls-4 {
        fill: url(#Degradado_sin_nombre_131-4);
      }

      .cls-5 {
        fill: url(#Degradado_sin_nombre_131-3);
      }

      .cls-6 {
        fill: url(#Degradado_sin_nombre_131-8);
      }

      .cls-7 {
        fill: url(#Degradado_sin_nombre_131-7);
      }

      .cls-8 {
        fill: #9a9b99;
        font-family: Prospero-Extralight, Prospero;
        font-size: 12.86px;
        font-weight: 200;
        letter-spacing: .56em;
      }

      .cls-9 {
        fill: url(#Degradado_sin_nombre_131-10);
      }

      .cls-10 {
        fill: url(#Degradado_sin_nombre_131-6);
      }

      .cls-11 {
        fill: url(#Degradado_sin_nombre_131-12);
      }

      .cls-12 {
        fill: url(#Degradado_sin_nombre_131-11);
      }

      .cls-13 {
        clip-path: url(#clippath);
      }

      .cls-14 {
        fill: url(#Degradado_sin_nombre_131-2);
      }

      .cls-15 {
        fill: url(#Degradado_sin_nombre_131-5);
      }
    </style>
    <clipPath id="clippath">
      <rect class="cls-3" x="-245.07" y="107.85" width="1920" height="1080"/>
    </clipPath>
    <linearGradient id="Degradado_sin_nombre_131" data-name="Degradado sin nombre 131" x1="-35.7" y1="-19.25" x2="267.95" y2="212.61" gradientUnits="userSpaceOnUse">
      <stop offset="0" stop-color="#f7d48d"/>
      <stop offset="1" stop-color="#996114"/>
    </linearGradient>
    <linearGradient id="Degradado_sin_nombre_131-2" data-name="Degradado sin nombre 131" x1="-11.91" y1="-50.41" x2="291.75" y2="181.44" xlink:href="#Degradado_sin_nombre_131"/>
    <linearGradient id="Degradado_sin_nombre_131-3" data-name="Degradado sin nombre 131" x1="10.42" y1="-79.66" x2="314.08" y2="152.19" xlink:href="#Degradado_sin_nombre_131"/>
    <linearGradient id="Degradado_sin_nombre_131-4" data-name="Degradado sin nombre 131" x1="23.09" y1="-96.25" x2="326.74" y2="135.61" xlink:href="#Degradado_sin_nombre_131"/>
    <linearGradient id="Degradado_sin_nombre_131-5" data-name="Degradado sin nombre 131" x1="50.71" y1="-132.43" x2="354.37" y2="99.43" xlink:href="#Degradado_sin_nombre_131"/>
    <linearGradient id="Degradado_sin_nombre_131-6" data-name="Degradado sin nombre 131" x1="-24.92" y1="-33.36" x2="278.73" y2="198.49" xlink:href="#Degradado_sin_nombre_131"/>
    <linearGradient id="Degradado_sin_nombre_131-7" data-name="Degradado sin nombre 131" x1="-1.08" y1="-64.6" x2="302.58" y2="167.26" xlink:href="#Degradado_sin_nombre_131"/>
    <linearGradient id="Degradado_sin_nombre_131-8" data-name="Degradado sin nombre 131" x1="35.83" y1="-112.93" x2="339.48" y2="118.92" xlink:href="#Degradado_sin_nombre_131"/>
    <linearGradient id="Degradado_sin_nombre_131-9" data-name="Degradado sin nombre 131" x1="282.9" y1="32.34" x2="282.9" y2="-23.95" xlink:href="#Degradado_sin_nombre_131"/>
    <linearGradient id="Degradado_sin_nombre_131-10" data-name="Degradado sin nombre 131" x1="327.79" y1="32.76" x2="327.79" y2="-24.3" xlink:href="#Degradado_sin_nombre_131"/>
    <linearGradient id="Degradado_sin_nombre_131-11" data-name="Degradado sin nombre 131" x1="372.56" y1="32.34" x2="372.56" y2="-23.95" xlink:href="#Degradado_sin_nombre_131"/>
    <linearGradient id="Degradado_sin_nombre_131-12" data-name="Degradado sin nombre 131" x1="415.77" y1="32.54" x2="415.77" y2="-23.74" xlink:href="#Degradado_sin_nombre_131"/>
  </defs>
  <g class="cls-13">
    <image id="Fondo_landing_votaciones.psd" data-name="Fondo landing votaciones.psd" width="7680" height="4050" transform="translate(-420.63 43.22) scale(.3)" xlink:href="sendgb-yFlxrUuwMZq/Inter Day Landing final/Links/Fondo-landing-votaciones.jpg"/>
  </g>
  <g>
    <g>
      <g>
        <rect class="cls-2" x=".52" y="1.4" width="2.52" height="15.95"/>
        <polygon class="cls-14" points="57.35 3.8 62.54 3.8 62.54 17.35 65.06 17.35 65.06 3.8 70.25 3.8 70.25 1.4 57.35 1.4 57.35 3.8"/>
        <path class="cls-5" d="M135.26,6.52c0-4.54-3.45-5.12-6.46-5.12h-6.83v15.95h2.52v-5.71h4.15c.32,0,.61,0,.9-.02l4.02,5.74h3.03l-4.36-6.2c2.04-.7,3.03-2.22,3.03-4.64ZM128.86,9.29h-4.37V3.83h4.34c3.27,0,3.89.96,3.89,2.73,0,.91-.19,1.52-.58,1.91-.54.54-1.62.81-3.28.81Z"/>
        <path class="cls-4" d="M162.14,1.15h-5.72v15.39h5.72c4.45,0,8.06-3.32,8.06-7.69s-3.61-7.7-8.06-7.7ZM162.12,15.68h-4.75V2h4.75c3.93,0,7.12,2.96,7.12,6.84s-3.19,6.84-7.12,6.84Z"/>
        <polygon class="cls-15" points="238.46 1.15 232.34 9.84 226.23 1.15 225.1 1.15 231.87 10.83 231.87 16.53 232.82 16.53 232.82 10.82 239.59 1.15 238.46 1.15"/>
        <polygon class="cls-10" points="35.46 12.91 26.38 1.4 25.21 1.4 25.2 1.39 25.01 1.39 25.01 1.4 24.14 1.4 24.14 17.35 26.64 17.35 26.64 5.86 35.71 17.35 36.88 17.35 37.09 17.35 37.96 17.35 37.96 1.4 35.46 1.4 35.46 12.91"/>
        <polygon class="cls-7" points="92.34 14.92 92.34 10.5 101.04 10.5 101.04 8.1 92.34 8.1 92.34 3.83 93.87 3.83 101.78 3.83 101.78 1.4 89.82 1.4 89.82 17.35 102.01 17.35 102.01 14.92 93.87 14.92 92.34 14.92"/>
        <path class="cls-6" d="M206.57,16.53l-7.1-15.39h-1.23l-7.09,15.39h1.1l2.04-4.41h9.19l2.04,4.41h1.04ZM200.71,11.34h-6.12l3.25-6.99.25-.54.25-.53.52-1.12,4.27,9.19h-2.43Z"/>
      </g>
      <g>
        <path class="cls-1" d="M284.93,10.2c1.86-1.83,2.63-2.84,2.63-4.28,0-2.27-1.96-3.98-4.56-3.98-2.24,0-3.69.82-5.01,2.84l-.18.27.77.47.17-.25c1.17-1.78,2.32-2.44,4.25-2.44,1.81,0,3.65,1.06,3.65,3.1,0,1.05-.49,1.8-2.36,3.65l-6.2,6.12v.75h9.89v-.88h-8.49l5.43-5.36Z"/>
        <path class="cls-9" d="M327.79,1.94c-3.85,0-6.24,2.82-6.24,7.35s2.39,7.35,6.24,7.35,6.24-2.82,6.24-7.35-2.39-7.35-6.24-7.35ZM327.79,15.75c-3.29,0-5.34-2.48-5.34-6.47s2.04-6.47,5.34-6.47,5.34,2.48,5.34,6.47-2.04,6.47-5.34,6.47Z"/>
        <path class="cls-12" d="M374.58,10.2c1.86-1.83,2.63-2.83,2.63-4.28,0-2.27-1.96-3.98-4.56-3.98-2.24,0-3.69.82-5.01,2.84l-.18.27.77.47.17-.25c1.17-1.78,2.32-2.44,4.25-2.44,1.81,0,3.65,1.06,3.65,3.1,0,1.04-.49,1.8-2.36,3.65l-6.2,6.12v.75h9.89v-.88h-8.49l5.43-5.36Z"/>
        <path class="cls-11" d="M415.84,7.31c-1.28,0-2.5.35-3.46.98V3.02h7.59v-.89h-8.5v7.18l.52.48.21-.21c.9-.9,2.16-1.38,3.64-1.38,2.38,0,4.11,1.53,4.11,3.63,0,2.24-1.9,3.92-4.42,3.92-1.71,0-2.97-.51-3.97-1.62l-.2-.22-.68.58.22.24c1.15,1.27,2.71,1.91,4.64,1.91,3.04,0,5.33-2.07,5.33-4.81s-2.11-4.52-5.02-4.52Z"/>
      </g>
    </g>
    <text class="cls-8" transform="translate(.52 48.2)"><tspan x="0" y="0">ENTREGAR ES MEJOR QUE RECIBIR</tspan></text>
  </g>
</svg>