<?xml version="1.0" encoding="UTF-8"?>
<svg id="uuid-bb1a9d23-8305-4a1a-8b52-abdd32eb0853" data-name="Capa 2" xmlns="http://www.w3.org/2000/svg" xmlns:xlink="http://www.w3.org/1999/xlink" viewBox="0 0 420.34 51.93">
  <defs>
    <linearGradient id="uuid-c16a0c53-9b9e-482a-aaae-248709900801" data-name="Degradado sin nombre 131" x1="-36.23" y1="-20.39" x2="267.43" y2="211.46" gradientUnits="userSpaceOnUse">
      <stop offset="0" stop-color="#f7d48d"/>
      <stop offset="1" stop-color="#996114"/>
    </linearGradient>
    <linearGradient id="uuid-160e307d-3bc2-4c89-83dd-2d0b848d74bc" data-name="Degradado sin nombre 131" x1="-12.43" y1="-51.56" x2="291.22" y2="180.29" xlink:href="#uuid-c16a0c53-9b9e-482a-aaae-248709900801"/>
    <linearGradient id="uuid-b57a772e-006f-4c69-80a6-8a206201cc23" data-name="Degradado sin nombre 131" x1="9.9" y1="-80.8" x2="313.55" y2="151.05" xlink:href="#uuid-c16a0c53-9b9e-482a-aaae-248709900801"/>
    <linearGradient id="uuid-f5e81ab8-9586-4a40-bbcb-406e0bab3cd6" data-name="Degradado sin nombre 131" x1="22.56" y1="-97.39" x2="326.22" y2="134.46" xlink:href="#uuid-c16a0c53-9b9e-482a-aaae-248709900801"/>
    <linearGradient id="uuid-d53337d9-810f-4051-85bb-79b1c6917692" data-name="Degradado sin nombre 131" x1="50.19" y1="-133.57" x2="353.84" y2="98.28" xlink:href="#uuid-c16a0c53-9b9e-482a-aaae-248709900801"/>
    <linearGradient id="uuid-0df15a36-30ba-47e4-8212-a780add56007" data-name="Degradado sin nombre 131" x1="-25.45" y1="-34.51" x2="278.2" y2="197.34" xlink:href="#uuid-c16a0c53-9b9e-482a-aaae-248709900801"/>
    <linearGradient id="uuid-61991387-0b33-4c03-bb15-c21bd0af89d9" data-name="Degradado sin nombre 131" x1="-1.6" y1="-65.74" x2="302.05" y2="166.11" xlink:href="#uuid-c16a0c53-9b9e-482a-aaae-248709900801"/>
    <linearGradient id="uuid-0eab722e-cbc3-4f70-94f5-2fc4c848de96" data-name="Degradado sin nombre 131" x1="35.31" y1="-114.08" x2="338.96" y2="117.77" xlink:href="#uuid-c16a0c53-9b9e-482a-aaae-248709900801"/>
    <linearGradient id="uuid-952e9c2e-d05e-472b-bc7f-eac18478ea87" data-name="Degradado sin nombre 131" x1="282.38" y1="31.19" x2="282.38" y2="-25.09" xlink:href="#uuid-c16a0c53-9b9e-482a-aaae-248709900801"/>
    <linearGradient id="uuid-3b3a9a49-4f11-4fd7-bd9c-66a423966020" data-name="Degradado sin nombre 131" x1="327.27" y1="31.61" x2="327.27" y2="-25.45" xlink:href="#uuid-c16a0c53-9b9e-482a-aaae-248709900801"/>
    <linearGradient id="uuid-457d0678-8ab4-4e33-808b-69b2d9df217f" data-name="Degradado sin nombre 131" x1="372.03" y1="31.19" x2="372.03" y2="-25.09" xlink:href="#uuid-c16a0c53-9b9e-482a-aaae-248709900801"/>
    <linearGradient id="uuid-7d572bf2-4cb9-4e0b-ae17-c2be6647a0ef" data-name="Degradado sin nombre 131" x1="415.24" y1="31.39" x2="415.24" y2="-24.89" xlink:href="#uuid-c16a0c53-9b9e-482a-aaae-248709900801"/>
  </defs>
  <g id="uuid-1a22ca1e-d7de-419f-ac9d-156d50f95f32" data-name="Capa 1">
    <g>
      <g>
        <rect y=".25" width="2.52" height="15.95" style="fill: url(#uuid-c16a0c53-9b9e-482a-aaae-248709900801);"/>
        <polygon points="56.83 2.66 62.02 2.66 62.02 16.21 64.54 16.21 64.54 2.66 69.72 2.66 69.72 .25 56.83 .25 56.83 2.66" style="fill: url(#uuid-160e307d-3bc2-4c89-83dd-2d0b848d74bc);"/>
        <path d="M134.73,5.37c0-4.54-3.45-5.12-6.46-5.12h-6.83v15.95h2.52v-5.71h4.15c.32,0,.61,0,.9-.02l4.02,5.74h3.03l-4.36-6.2c2.04-.7,3.03-2.22,3.03-4.64ZM128.33,8.14h-4.37V2.69h4.34c3.27,0,3.89.96,3.89,2.73,0,.91-.19,1.52-.58,1.91-.54.54-1.62.81-3.28.81Z" style="fill: url(#uuid-b57a772e-006f-4c69-80a6-8a206201cc23);"/>
        <path d="M161.62,0h-5.72v15.39h5.72c4.45,0,8.06-3.32,8.06-7.69s-3.61-7.7-8.06-7.7ZM161.59,14.53h-4.75V.85h4.75c3.93,0,7.12,2.96,7.12,6.84s-3.19,6.84-7.12,6.84Z" style="fill: url(#uuid-f5e81ab8-9586-4a40-bbcb-406e0bab3cd6);"/>
        <polygon points="237.94 0 231.82 8.69 225.71 0 224.57 0 231.35 9.68 231.35 15.39 232.29 15.39 232.29 9.67 239.06 0 237.94 0" style="fill: url(#uuid-d53337d9-810f-4051-85bb-79b1c6917692);"/>
        <polygon points="34.93 11.76 25.86 .25 24.68 .25 24.68 .25 24.48 .25 24.48 .25 23.61 .25 23.61 16.21 26.12 16.21 26.12 4.71 35.19 16.21 36.36 16.21 36.57 16.21 37.44 16.21 37.44 .25 34.93 .25 34.93 11.76" style="fill: url(#uuid-0df15a36-30ba-47e4-8212-a780add56007);"/>
        <polygon points="91.82 13.77 91.82 9.36 100.52 9.36 100.52 6.95 91.82 6.95 91.82 2.69 93.34 2.69 101.26 2.69 101.26 .25 89.3 .25 89.3 16.21 101.48 16.21 101.48 13.77 93.34 13.77 91.82 13.77" style="fill: url(#uuid-61991387-0b33-4c03-bb15-c21bd0af89d9);"/>
        <path d="M206.05,15.39L198.95,0h-1.23l-7.09,15.39h1.1l2.04-4.41h9.19l2.04,4.41h1.04ZM200.18,10.19h-6.12l3.25-6.99.25-.54.25-.53.52-1.12,4.27,9.19h-2.43Z" style="fill: url(#uuid-0eab722e-cbc3-4f70-94f5-2fc4c848de96);"/>
      </g>
      <g>
        <path d="M284.41,9.05c1.86-1.83,2.63-2.84,2.63-4.28,0-2.27-1.96-3.98-4.56-3.98-2.24,0-3.69.82-5.01,2.84l-.18.27.77.47.17-.25c1.17-1.78,2.32-2.44,4.25-2.44,1.81,0,3.65,1.06,3.65,3.1,0,1.05-.49,1.8-2.36,3.65l-6.2,6.12v.75h9.89v-.88h-8.49l5.43-5.36Z" style="fill: url(#uuid-952e9c2e-d05e-472b-bc7f-eac18478ea87);"/>
        <path d="M327.27.79c-3.85,0-6.24,2.82-6.24,7.35s2.39,7.35,6.24,7.35,6.24-2.82,6.24-7.35-2.39-7.35-6.24-7.35ZM327.27,14.61c-3.29,0-5.34-2.48-5.34-6.47s2.04-6.47,5.34-6.47,5.34,2.48,5.34,6.47-2.04,6.47-5.34,6.47Z" style="fill: url(#uuid-3b3a9a49-4f11-4fd7-bd9c-66a423966020);"/>
        <path d="M374.06,9.05c1.86-1.83,2.63-2.83,2.63-4.28,0-2.27-1.96-3.98-4.56-3.98-2.24,0-3.69.82-5.01,2.84l-.18.27.77.47.17-.25c1.17-1.78,2.32-2.44,4.25-2.44,1.81,0,3.65,1.06,3.65,3.1,0,1.04-.49,1.8-2.36,3.65l-6.2,6.12v.75h9.89v-.88h-8.49l5.43-5.36Z" style="fill: url(#uuid-457d0678-8ab4-4e33-808b-69b2d9df217f);"/>
        <path d="M415.32,6.17c-1.28,0-2.5.35-3.46.98V1.88h7.59v-.89h-8.5v7.18l.52.48.21-.21c.9-.9,2.16-1.38,3.64-1.38,2.38,0,4.11,1.53,4.11,3.63,0,2.24-1.9,3.92-4.42,3.92-1.71,0-2.97-.51-3.97-1.62l-.2-.22-.68.58.22.24c1.15,1.27,2.71,1.91,4.64,1.91,3.04,0,5.33-2.07,5.33-4.81s-2.11-4.52-5.02-4.52Z" style="fill: url(#uuid-7d572bf2-4cb9-4e0b-ae17-c2be6647a0ef);"/>
      </g>
    </g>
    <text transform="translate(0 47.05)" style="fill: #fff; font-family: Prospero-Extralight, Prospero; font-size: 12.86px; font-weight: 200; letter-spacing: .56em;"><tspan x="0" y="0">ENTREGAR ES MEJOR QUE RECIBIR</tspan></text>
  </g>
</svg>